<?xml version="1.0" encoding="UTF-8"?>
<!DOCTYPE svg PUBLIC "-//W3C//DTD SVG 1.1//EN" "http://www.w3.org/Graphics/SVG/1.1/DTD/svg11.dtd">
<svg xmlns="http://www.w3.org/2000/svg" version="1.1" width="405px" height="401px" style="shape-rendering:geometricPrecision; text-rendering:geometricPrecision; image-rendering:optimizeQuality; fill-rule:evenodd; clip-rule:evenodd" xmlns:xlink="http://www.w3.org/1999/xlink">
<g><path style="opacity:1" fill="#e7af48" d="M 202.5,-0.5 C 205.167,-0.5 207.833,-0.5 210.5,-0.5C 210.842,0.338246 211.508,0.67158 212.5,0.5C 209.373,1.58075 206.04,2.24742 202.5,2.5C 202.5,1.5 202.5,0.5 202.5,-0.5 Z"/></g>
<g><path style="opacity:1" fill="#e8ab59" d="M 195.5,-0.5 C 197.833,-0.5 200.167,-0.5 202.5,-0.5C 202.5,0.5 202.5,1.5 202.5,2.5C 206.04,2.24742 209.373,1.58075 212.5,0.5C 217.28,2.05574 221.613,4.38907 225.5,7.5C 226.15,9.43525 226.483,11.4352 226.5,13.5C 227.833,13.5 229.167,13.5 230.5,13.5C 231.626,16.1407 232.959,18.8074 234.5,21.5C 238.498,22.6528 241.498,24.9861 243.5,28.5C 246.074,29.666 248.241,31.3326 250,33.5C 250.49,34.7932 250.657,36.1266 250.5,37.5C 251.873,37.3433 253.207,37.51 254.5,38C 256.482,39.4291 258.148,41.7624 259.5,45C 260.793,45.49 262.127,45.6567 263.5,45.5C 265.888,48.0762 268.888,49.0762 272.5,48.5C 273.833,49.1667 275.167,49.8333 276.5,50.5C 276.5,52.1667 276.5,53.8333 276.5,55.5C 275.761,55.369 275.094,55.5357 274.5,56C 285.369,66.7016 296.035,77.5349 306.5,88.5C 304.656,90.2789 303.99,92.6122 304.5,95.5C 291.035,82.5353 277.701,69.3686 264.5,56C 263.906,55.5357 263.239,55.369 262.5,55.5C 262.5,55.1667 262.5,54.8333 262.5,54.5C 262.389,53.8826 262.056,53.3826 261.5,53C 256.708,52.7834 252.041,51.95 247.5,50.5C 249.969,49.8319 252.302,49.1653 254.5,48.5C 255.552,48.6495 256.552,48.4828 257.5,48C 244.541,34.2011 230.874,21.3678 216.5,9.5C 218.792,9.24358 220.959,9.57692 223,10.5C 223.483,9.55198 223.649,8.55198 223.5,7.5C 220.449,7.54623 217.782,6.54623 215.5,4.5C 214.571,5.68884 214.238,7.02218 214.5,8.5C 205.937,4.2756 197.604,4.7756 189.5,10C 176.661,22.006 163.994,34.1726 151.5,46.5C 151.565,46.0618 151.399,45.7284 151,45.5C 150,46.5 149,47.5 148,48.5C 147.502,46.4556 146.335,45.1223 144.5,44.5C 156.298,32.2015 168.298,20.0349 180.5,8C 185.27,4.619 190.27,1.78567 195.5,-0.5 Z"/></g>
<g><path style="opacity:1" fill="#efa851" d="M 216.5,9.5 C 215.833,9.16667 215.167,8.83333 214.5,8.5C 214.238,7.02218 214.571,5.68884 215.5,4.5C 217.782,6.54623 220.449,7.54623 223.5,7.5C 223.649,8.55198 223.483,9.55198 223,10.5C 220.959,9.57692 218.792,9.24358 216.5,9.5 Z"/></g>
<g><path style="opacity:1" fill="#e0af65" d="M 225.5,7.5 C 238.446,19.7792 251.113,32.4459 263.5,45.5C 262.127,45.6567 260.793,45.49 259.5,45C 258.148,41.7624 256.482,39.4291 254.5,38C 253.207,37.51 251.873,37.3433 250.5,37.5C 250.657,36.1266 250.49,34.7932 250,33.5C 248.241,31.3326 246.074,29.666 243.5,28.5C 241.498,24.9861 238.498,22.6528 234.5,21.5C 232.959,18.8074 231.626,16.1407 230.5,13.5C 229.167,13.5 227.833,13.5 226.5,13.5C 226.483,11.4352 226.15,9.43525 225.5,7.5 Z"/></g>
<g><path style="opacity:0.936" fill="#e9ab53" d="M 144.5,44.5 C 146.335,45.1223 147.502,46.4556 148,48.5C 149,47.5 150,46.5 151,45.5C 151.399,45.7284 151.565,46.0618 151.5,46.5C 149.969,47.9245 150.302,48.5912 152.5,48.5C 153.568,49.4345 154.901,49.7678 156.5,49.5C 156.5,50.5 156.5,51.5 156.5,52.5C 151.786,52.8266 147.12,52.4933 142.5,51.5C 141.754,50.2638 141.421,48.9305 141.5,47.5C 142.167,46.1667 143.167,45.1667 144.5,44.5 Z"/></g>
<g><path style="opacity:0.543" fill="#daae70" d="M 110.5,48.5 C 108.325,50.5792 105.658,51.5792 102.5,51.5C 97.4257,48.0797 93.4257,48.913 90.5,54C 104.006,54.169 117.34,54.669 130.5,55.5C 113.833,55.5 97.1667,55.5 80.5,55.5C 80.5,55.1667 80.5,54.8333 80.5,54.5C 82.7567,54.0383 84.7567,53.0383 86.5,51.5C 83.2317,50.513 79.8984,50.1796 76.5,50.5C 78.631,49.6862 80.9644,49.1862 83.5,49C 92.4938,48.5002 101.494,48.3336 110.5,48.5 Z"/></g>
<g><path style="opacity:1" fill="#e7ab5b" d="M 141.5,47.5 C 141.421,48.9305 141.754,50.2638 142.5,51.5C 147.12,52.4933 151.786,52.8266 156.5,52.5C 156.5,51.5 156.5,50.5 156.5,49.5C 160.241,48.5985 162.241,49.9319 162.5,53.5C 156.158,53.3338 149.825,53.5005 143.5,54C 142.944,54.3826 142.611,54.8826 142.5,55.5C 141.833,56.8333 140.833,57.8333 139.5,58.5C 139.586,57.5041 139.252,56.6708 138.5,56C 136.402,55.3224 134.402,55.4891 132.5,56.5C 132.5,56.1667 132.5,55.8333 132.5,55.5C 133.918,53.6921 135.918,53.0254 138.5,53.5C 138.5,51.8333 138.5,50.1667 138.5,48.5C 139.609,48.4431 140.609,48.1098 141.5,47.5 Z"/></g>
<g><path style="opacity:1" fill="#dead6b" d="M 152.5,48.5 C 158.509,48.3338 164.509,48.5005 170.5,49C 173.167,51 173.167,53 170.5,55C 161.173,55.4998 151.839,55.6665 142.5,55.5C 142.611,54.8826 142.944,54.3826 143.5,54C 149.825,53.5005 156.158,53.3338 162.5,53.5C 162.241,49.9319 160.241,48.5985 156.5,49.5C 154.901,49.7678 153.568,49.4345 152.5,48.5 Z"/></g>
<g><path style="opacity:1" fill="#d9ad71" d="M 272.5,48.5 C 287.833,48.5 303.167,48.5 318.5,48.5C 318.5,48.8333 318.5,49.1667 318.5,49.5C 314.298,50.7994 309.964,50.7994 305.5,49.5C 299.409,52.101 293.243,52.101 287,49.5C 283.559,50.3822 280.059,50.7155 276.5,50.5C 275.167,49.8333 273.833,49.1667 272.5,48.5 Z"/></g>
<g><path style="opacity:1" fill="#e8ac54" d="M 76.5,50.5 C 79.8984,50.1796 83.2317,50.513 86.5,51.5C 84.7567,53.0383 82.7567,54.0383 80.5,54.5C 77.8127,54.3359 75.146,54.5026 72.5,55C 71.1772,55.8159 70.5106,56.9826 70.5,58.5C 67.6148,58.357 65.2815,57.357 63.5,55.5C 67.2371,52.4733 71.5705,50.8067 76.5,50.5 Z"/></g>
<g><path style="opacity:1" fill="#e0ad63" d="M 110.5,48.5 C 111.167,48.5 111.833,48.5 112.5,48.5C 113.091,49.1515 113.757,49.8182 114.5,50.5C 120.807,51.6639 127.141,51.8306 133.5,51C 134.252,50.3292 134.586,49.4959 134.5,48.5C 135.833,48.5 137.167,48.5 138.5,48.5C 138.5,50.1667 138.5,51.8333 138.5,53.5C 135.918,53.0254 133.918,53.6921 132.5,55.5C 131.833,55.5 131.167,55.5 130.5,55.5C 117.34,54.669 104.006,54.169 90.5,54C 93.4257,48.913 97.4257,48.0797 102.5,51.5C 105.658,51.5792 108.325,50.5792 110.5,48.5 Z"/></g>
<g><path style="opacity:1" fill="#d9ae70" d="M 112.5,48.5 C 119.833,48.5 127.167,48.5 134.5,48.5C 134.586,49.4959 134.252,50.3292 133.5,51C 127.141,51.8306 120.807,51.6639 114.5,50.5C 113.757,49.8182 113.091,49.1515 112.5,48.5 Z"/></g>
<g><path style="opacity:1" fill="#dbae65" d="M 254.5,48.5 C 252.302,49.1653 249.969,49.8319 247.5,50.5C 252.041,51.95 256.708,52.7834 261.5,53C 262.056,53.3826 262.389,53.8826 262.5,54.5C 253.161,54.6665 243.827,54.4998 234.5,54C 233.272,52.5098 233.272,51.0098 234.5,49.5C 240.979,48.5093 247.646,48.176 254.5,48.5 Z"/></g>
<g><path style="opacity:1" fill="#ddac69" d="M 318.5,49.5 C 320.213,50.6354 320.88,52.302 320.5,54.5C 322.099,54.2322 323.432,54.5655 324.5,55.5C 308.5,55.5 292.5,55.5 276.5,55.5C 276.5,53.8333 276.5,52.1667 276.5,50.5C 280.059,50.7155 283.559,50.3822 287,49.5C 293.243,52.101 299.409,52.101 305.5,49.5C 309.964,50.7994 314.298,50.7994 318.5,49.5 Z"/></g>
<g><path style="opacity:1" fill="#e1ac5e" d="M 318.5,49.5 C 318.5,49.1667 318.5,48.8333 318.5,48.5C 322.011,48.8994 325.344,49.5661 328.5,50.5C 326.473,50.3379 324.473,50.5045 322.5,51C 324.452,52.4119 325.785,54.2453 326.5,56.5C 325.508,56.6716 324.842,56.3382 324.5,55.5C 323.432,54.5655 322.099,54.2322 320.5,54.5C 320.88,52.302 320.213,50.6354 318.5,49.5 Z"/></g>
<g><path style="opacity:1" fill="#e8a967" d="M 80.5,54.5 C 80.5,54.8333 80.5,55.1667 80.5,55.5C 77.2737,56.4887 73.9404,57.4887 70.5,58.5C 70.5106,56.9826 71.1772,55.8159 72.5,55C 75.146,54.5026 77.8127,54.3359 80.5,54.5 Z"/></g>
<g><path style="opacity:0.333" fill="#d2b077" d="M 234.5,49.5 C 233.272,51.0098 233.272,52.5098 234.5,54C 243.827,54.4998 253.161,54.6665 262.5,54.5C 262.5,54.8333 262.5,55.1667 262.5,55.5C 252.828,55.6665 243.161,55.4998 233.5,55C 231.922,52.6612 232.255,50.8278 234.5,49.5 Z"/></g>
<g><path style="opacity:1" fill="#e2ac64" d="M 63.5,55.5 C 65.2815,57.357 67.6148,58.357 70.5,58.5C 65.8333,61.1667 62.1667,64.8333 59.5,69.5C 59.405,67.2143 58.7384,65.2143 57.5,63.5C 57.5,62.8333 57.5,62.1667 57.5,61.5C 59.1667,59.1667 61.1667,57.1667 63.5,55.5 Z"/></g>
<g><path style="opacity:1" fill="#e9aa56" d="M 328.5,50.5 C 345.424,54.272 354.257,64.9386 355,82.5C 355.5,95.1623 355.667,107.829 355.5,120.5C 354.221,121.968 352.554,122.635 350.5,122.5C 350.284,119.568 350.951,116.902 352.5,114.5C 351.229,110.146 351.229,105.813 352.5,101.5C 351.738,97.8889 351.238,94.2222 351,90.5C 350.617,89.944 350.117,89.6107 349.5,89.5C 349.806,86.6146 349.473,83.9479 348.5,81.5C 347.377,76.7952 346.044,72.1285 344.5,67.5C 344.5,66.1667 344.5,64.8333 344.5,63.5C 343.5,63.5 342.5,63.5 341.5,63.5C 337.157,59.8295 332.157,57.4961 326.5,56.5C 325.785,54.2453 324.452,52.4119 322.5,51C 324.473,50.5045 326.473,50.3379 328.5,50.5 Z"/></g>
<g><path style="opacity:1" fill="#eea75f" d="M 139.5,58.5 C 136.5,62.1667 133.167,65.5 129.5,68.5C 128.876,68.0831 128.543,67.4164 128.5,66.5C 129.407,62.9498 130.741,59.6164 132.5,56.5C 134.402,55.4891 136.402,55.3224 138.5,56C 139.252,56.6708 139.586,57.5041 139.5,58.5 Z"/></g>
<g><path style="opacity:0.753" fill="#e9c348" d="M 57.5,61.5 C 57.5,62.1667 57.5,62.8333 57.5,63.5C 56.8333,63.8333 56.1667,64.1667 55.5,64.5C 55.427,62.9731 56.0937,61.9731 57.5,61.5 Z"/></g>
<g><path style="opacity:1" fill="#e2ad59" d="M 132.5,56.5 C 130.741,59.6164 129.407,62.9498 128.5,66.5C 128.543,67.4164 128.876,68.0831 129.5,68.5C 127.833,70.8333 125.833,72.8333 123.5,74.5C 123.5,73.5 123.5,72.5 123.5,71.5C 122.5,71.5 121.5,71.5 120.5,71.5C 120.5,70.5 120.5,69.5 120.5,68.5C 124.167,64.1667 128.167,60.1667 132.5,56.5 Z"/></g>
<g><path style="opacity:0.302" fill="#dea972" d="M 341.5,63.5 C 342.5,63.5 343.5,63.5 344.5,63.5C 344.5,64.8333 344.5,66.1667 344.5,67.5C 343.026,66.5637 342.026,65.2303 341.5,63.5 Z"/></g>
<g><path style="opacity:1" fill="#e8ac59" d="M 57.5,63.5 C 58.7384,65.2143 59.405,67.2143 59.5,69.5C 58.6972,73.2388 57.6972,76.9054 56.5,80.5C 55.2876,81.2299 54.2876,82.2299 53.5,83.5C 52.4512,80.9205 51.7845,78.2538 51.5,75.5C 51.6667,71.3266 53,67.6599 55.5,64.5C 56.1667,64.1667 56.8333,63.8333 57.5,63.5 Z"/></g>
<g><path style="opacity:1" fill="#eda565" d="M 120.5,68.5 C 120.5,69.5 120.5,70.5 120.5,71.5C 121.5,71.5 122.5,71.5 123.5,71.5C 123.5,72.5 123.5,73.5 123.5,74.5C 118.918,76.0685 117.418,74.4019 119,69.5C 119.383,68.944 119.883,68.6107 120.5,68.5 Z"/></g>
<g><path style="opacity:1" fill="#f2a851" d="M 348.5,69.5 C 351.276,69.0889 351.943,69.9223 350.5,72C 353.114,74.6335 352.947,77.1335 350,79.5C 348.595,76.3812 348.095,73.0479 348.5,69.5 Z"/></g>
<g><path style="opacity:0.373" fill="#d6af77" d="M 49.5,86.5 C 50.29,87.6085 50.79,88.9419 51,90.5C 51.1667,96.3333 51.3333,102.167 51.5,108C 51.2683,117.967 50.935,127.801 50.5,137.5C 50.1667,137.5 49.8333,137.5 49.5,137.5C 49.5,120.5 49.5,103.5 49.5,86.5 Z"/></g>
<g><path style="opacity:1" fill="#eaac52" d="M 349.5,89.5 C 350.117,89.6107 350.617,89.944 351,90.5C 351.238,94.2222 351.738,97.8889 352.5,101.5C 351.229,105.813 351.229,110.146 352.5,114.5C 350.951,116.902 350.284,119.568 350.5,122.5C 352.554,122.635 354.221,121.968 355.5,120.5C 355.5,126.167 355.5,131.833 355.5,137.5C 354.13,139.707 354.797,141.374 357.5,142.5C 358.183,142.137 358.85,141.804 359.5,141.5C 360.833,142.167 361.833,143.167 362.5,144.5C 362.5,146.167 362.5,147.833 362.5,149.5C 365.578,149.587 367.911,150.92 369.5,153.5C 368.778,153.918 368.278,154.584 368,155.5C 366.362,153.266 364.195,151.933 361.5,151.5C 359.537,150.04 357.704,148.373 356,146.5C 355.536,147.094 355.369,147.761 355.5,148.5C 354.539,146.735 354.205,144.735 354.5,142.5C 353.167,142.5 351.833,142.5 350.5,142.5C 350.342,139.455 351.009,136.621 352.5,134C 348.947,131.028 349.614,130.195 354.5,131.5C 355.575,127.062 353.908,125.062 349.5,125.5C 349.5,113.5 349.5,101.5 349.5,89.5 Z"/></g>
<g><path style="opacity:1" fill="#dead69" d="M 51.5,75.5 C 51.7845,78.2538 52.4512,80.9205 53.5,83.5C 54.2876,82.2299 55.2876,81.2299 56.5,80.5C 56.5,97.5 56.5,114.5 56.5,131.5C 54.8829,132.589 54.0496,134.256 54,136.5C 52.9887,137.337 51.8221,137.67 50.5,137.5C 50.935,127.801 51.2683,117.967 51.5,108C 51.3333,102.167 51.1667,96.3333 51,90.5C 50.79,88.9419 50.29,87.6085 49.5,86.5C 49.8084,82.6403 50.4751,78.9736 51.5,75.5 Z"/></g>
<g><path style="opacity:1" fill="#e3ae53" d="M 306.5,88.5 C 308.167,89.5 309.5,90.8333 310.5,92.5C 310.5,92.8333 310.5,93.1667 310.5,93.5C 308.685,94.6298 306.685,95.2964 304.5,95.5C 303.99,92.6122 304.656,90.2789 306.5,88.5 Z"/></g>
<g><path style="opacity:0.757" fill="#dca971" d="M 310.5,92.5 C 312.5,93.8333 314.167,95.5 315.5,97.5C 313.251,96.9202 311.585,95.5869 310.5,93.5C 310.5,93.1667 310.5,92.8333 310.5,92.5 Z"/></g>
<g><path style="opacity:0.611" fill="#d8ad6c" d="M 201.5,100.5 C 202.209,99.596 203.209,99.2627 204.5,99.5C 204.5,105.5 204.5,111.5 204.5,117.5C 202.204,117.804 201.871,118.804 203.5,120.5C 202.504,120.586 201.671,120.252 201,119.5C 200.199,116.633 200.366,113.966 201.5,111.5C 201.238,112.978 201.571,114.311 202.5,115.5C 202.833,113 203.167,110.5 203.5,108C 203.475,105.071 202.809,102.571 201.5,100.5 Z"/></g>
<g><path style="opacity:0.92" fill="#ddac5e" d="M 201.5,100.5 C 202.809,102.571 203.475,105.071 203.5,108C 203.167,110.5 202.833,113 202.5,115.5C 201.571,114.311 201.238,112.978 201.5,111.5C 201.5,107.833 201.5,104.167 201.5,100.5 Z"/></g>
<g><path style="opacity:1" fill="#e9aa5d" d="M 159.5,123.5 C 158.167,123.5 156.833,123.5 155.5,123.5C 153.526,120.518 151.526,117.518 149.5,114.5C 149.833,113.5 150.5,112.833 151.5,112.5C 154.958,115.62 157.625,119.286 159.5,123.5 Z"/></g>
<g><path style="opacity:0.867" fill="#ddaa76" d="M 204.5,117.5 C 207.167,117.5 209.833,117.5 212.5,117.5C 212.737,118.791 212.404,119.791 211.5,120.5C 209.492,118.917 207.159,117.917 204.5,117.5 Z"/></g>
<g><path style="opacity:0.721" fill="#eba75b" d="M 204.5,117.5 C 207.159,117.917 209.492,118.917 211.5,120.5C 208.833,120.5 206.167,120.5 203.5,120.5C 201.871,118.804 202.204,117.804 204.5,117.5 Z"/></g>
<g><path style="opacity:0.965" fill="#e6a569" d="M 256.5,118.5 C 259.012,117.133 261.345,117.466 263.5,119.5C 261.821,119.285 260.821,119.952 260.5,121.5C 259.833,121.167 259.167,120.833 258.5,120.5C 258.5,119.167 257.833,118.5 256.5,118.5 Z"/></g>
<g><path style="opacity:0.475" fill="#f4a253" d="M 263.5,119.5 C 265.213,120.635 265.88,122.302 265.5,124.5C 263.336,124.279 261.67,123.279 260.5,121.5C 260.821,119.952 261.821,119.285 263.5,119.5 Z"/></g>
<g><path style="opacity:0.965" fill="#e6ad5f" d="M 150.5,132.5 C 150.44,133.043 150.107,133.376 149.5,133.5C 148.378,132.37 147.044,131.703 145.5,131.5C 143.298,128.274 140.965,125.107 138.5,122C 139.333,121.167 140.167,120.333 141,119.5C 144.665,123.508 147.832,127.841 150.5,132.5 Z"/></g>
<g><path style="opacity:0.986" fill="#e4ab50" d="M 256.5,118.5 C 257.833,118.5 258.5,119.167 258.5,120.5C 256.599,121.935 256.266,123.602 257.5,125.5C 257.768,127.099 257.434,128.432 256.5,129.5C 253.265,126.651 252.432,123.318 254,119.5C 254.671,118.748 255.504,118.414 256.5,118.5 Z"/></g>
<g><path style="opacity:1" fill="#e5b050" d="M 155.5,123.5 C 156.833,123.5 158.167,123.5 159.5,123.5C 160.947,124.134 161.613,125.301 161.5,127C 161.472,128.07 161.139,128.903 160.5,129.5C 158.583,130.406 156.917,131.739 155.5,133.5C 154.893,133.376 154.56,133.043 154.5,132.5C 157.934,129.786 158.267,126.786 155.5,123.5 Z"/></g>
<g><path style="opacity:1" fill="#e2aa69" d="M 257.5,125.5 C 260.035,127.846 260.702,130.513 259.5,133.5C 259.649,132.448 259.483,131.448 259,130.5C 258.329,131.252 257.496,131.586 256.5,131.5C 256.5,130.833 256.5,130.167 256.5,129.5C 257.434,128.432 257.768,127.099 257.5,125.5 Z"/></g>
<g><path style="opacity:0.984" fill="#e1b266" d="M 253.5,134.5 C 254.919,135.451 256.585,135.784 258.5,135.5C 254.225,138.416 250.392,137.749 247,133.5C 246.51,132.207 246.343,130.873 246.5,129.5C 249.08,130.735 251.413,132.401 253.5,134.5 Z"/></g>
<g><path style="opacity:1" fill="#ddac70" d="M 160.5,129.5 C 158.234,134.796 154.234,136.63 148.5,135C 147.29,133.961 146.29,132.794 145.5,131.5C 147.044,131.703 148.378,132.37 149.5,133.5C 150.107,133.376 150.44,133.043 150.5,132.5C 151.833,132.5 153.167,132.5 154.5,132.5C 154.56,133.043 154.893,133.376 155.5,133.5C 156.917,131.739 158.583,130.406 160.5,129.5 Z"/></g>
<g><path style="opacity:1" fill="#f0a95a" d="M 259.5,133.5 C 259.672,134.492 259.338,135.158 258.5,135.5C 256.585,135.784 254.919,135.451 253.5,134.5C 254.833,133.833 255.833,132.833 256.5,131.5C 257.496,131.586 258.329,131.252 259,130.5C 259.483,131.448 259.649,132.448 259.5,133.5 Z"/></g>
<g><path style="opacity:1" fill="#f3a659" d="M 61.5,136.5 C 60.1667,138.5 58.5,140.167 56.5,141.5C 56.1667,141.5 55.8333,141.5 55.5,141.5C 55.523,139.073 56.023,136.74 57,134.5C 58.3561,133.62 59.8561,133.286 61.5,133.5C 61.5,134.5 61.5,135.5 61.5,136.5 Z"/></g>
<g><path style="opacity:0.893" fill="#e5ac57" d="M 61.5,136.5 C 61.5,135.5 61.5,134.5 61.5,133.5C 59.8561,133.286 58.3561,133.62 57,134.5C 56.023,136.74 55.523,139.073 55.5,141.5C 54.3129,142.534 53.4796,143.867 53,145.5C 52.829,150.533 52.329,155.533 51.5,160.5C 50.8324,157.694 50.1657,155.028 49.5,152.5C 49.6495,151.448 49.4828,150.448 49,149.5C 39.965,158.702 30.7984,167.702 21.5,176.5C 20.7211,174.073 19.5545,174.073 18,176.5C 16.6439,175.62 15.1439,175.286 13.5,175.5C 25.1313,163.368 36.9647,151.368 49,139.5C 49.4643,138.906 49.631,138.239 49.5,137.5C 49.8333,137.5 50.1667,137.5 50.5,137.5C 51.8221,137.67 52.9887,137.337 54,136.5C 54.0496,134.256 54.8829,132.589 56.5,131.5C 61.9647,126.536 67.298,121.37 72.5,116C 77.3904,115.965 78.5571,118.132 76,122.5C 71.2979,127.37 66.4646,132.037 61.5,136.5 Z"/></g>
<g><path style="opacity:0.973" fill="#e0ae6a" d="M 355.5,137.5 C 357.167,138.5 358.5,139.833 359.5,141.5C 358.85,141.804 358.183,142.137 357.5,142.5C 354.797,141.374 354.13,139.707 355.5,137.5 Z"/></g>
<g><path style="opacity:1" fill="#eaab56" d="M 209.5,140.5 C 209.414,141.496 209.748,142.329 210.5,143C 213.5,143.333 216.5,143.667 219.5,144C 221.445,147.372 224.111,148.205 227.5,146.5C 227.833,146.5 228.167,146.5 228.5,146.5C 228.875,149.397 228.375,152.063 227,154.5C 225.318,153.135 225.151,151.635 226.5,150C 224.935,150.277 223.602,150.443 222.5,150.5C 224.26,153.212 224.927,156.212 224.5,159.5C 222.071,159.884 219.737,160.551 217.5,161.5C 217.5,163.833 217.5,166.167 217.5,168.5C 216.676,164.688 216.176,160.688 216,156.5C 212.61,152.968 208.943,152.634 205,155.5C 204.635,160.377 203.635,165.043 202,169.5C 201.433,174.834 200.933,180.167 200.5,185.5C 200.5,186.167 200.5,186.833 200.5,187.5C 199.5,187.5 198.5,187.5 197.5,187.5C 197.5,192.833 197.5,198.167 197.5,203.5C 197.06,205.844 196.06,207.844 194.5,209.5C 194.5,208.833 194.5,208.167 194.5,207.5C 194.793,203.563 194.46,199.73 193.5,196C 182.992,195.175 172.658,195.341 162.5,196.5C 158.869,195.588 155.203,195.421 151.5,196C 150.663,197.011 150.33,198.178 150.5,199.5C 149.256,204.035 149.256,208.702 150.5,213.5C 148.282,213.386 146.282,212.72 144.5,211.5C 141.982,203.612 141.982,195.612 144.5,187.5C 146.5,187.5 148.5,187.5 150.5,187.5C 150.383,185.516 151.05,183.85 152.5,182.5C 151.15,180.099 149.816,177.766 148.5,175.5C 150.043,170.976 152.377,166.976 155.5,163.5C 159.193,163.814 161.527,162.148 162.5,158.5C 163.833,157.833 165.167,157.167 166.5,156.5C 165.757,155.818 165.091,155.151 164.5,154.5C 177.486,143.841 192.486,139.174 209.5,140.5 Z"/></g>
<g><path style="opacity:0.767" fill="#e3ac68" d="M 209.5,140.5 C 215.981,141.281 221.981,143.281 227.5,146.5C 224.111,148.205 221.445,147.372 219.5,144C 216.5,143.667 213.5,143.333 210.5,143C 209.748,142.329 209.414,141.496 209.5,140.5 Z"/></g>
<g><path style="opacity:1" fill="#eaab56" d="M 228.5,146.5 C 253.764,160.36 264.764,181.693 261.5,210.5C 260.312,209.316 259.145,209.316 258,210.5C 257.623,209.058 256.79,208.058 255.5,207.5C 255.664,204.813 255.497,202.146 255,199.5C 254.682,197.939 253.849,196.772 252.5,196C 243.813,195.746 235.147,195.246 226.5,194.5C 224.793,194.728 223.126,195.062 221.5,195.5C 221.5,195.167 221.5,194.833 221.5,194.5C 222.714,185.378 221.38,176.711 217.5,168.5C 217.5,166.167 217.5,163.833 217.5,161.5C 219.737,160.551 222.071,159.884 224.5,159.5C 224.927,156.212 224.26,153.212 222.5,150.5C 223.602,150.443 224.935,150.277 226.5,150C 225.151,151.635 225.318,153.135 227,154.5C 228.375,152.063 228.875,149.397 228.5,146.5 Z"/></g>
<g><path style="opacity:1" fill="#ebaa59" d="M 361.5,151.5 C 364.195,151.933 366.362,153.266 368,155.5C 368.278,154.584 368.778,153.918 369.5,153.5C 372.32,156.101 374.987,158.935 377.5,162C 376.87,163.31 375.87,164.144 374.5,164.5C 369.833,160.5 365.5,156.167 361.5,151.5 Z"/></g>
<g><path style="opacity:1" fill="#e2ae64" d="M 217.5,168.5 C 221.38,176.711 222.714,185.378 221.5,194.5C 220.494,189.338 219.661,184.005 219,178.5C 218.678,175.334 217.511,172.667 215.5,170.5C 215.5,169.833 215.167,169.5 214.5,169.5C 214.5,168.167 214.5,166.833 214.5,165.5C 214.606,162.921 213.939,160.588 212.5,158.5C 210.786,157.262 208.786,156.595 206.5,156.5C 206.5,157.5 206.5,158.5 206.5,159.5C 205.699,161.042 205.366,162.708 205.5,164.5C 204.699,166.042 204.366,167.708 204.5,169.5C 203.167,174.833 201.833,180.167 200.5,185.5C 200.933,180.167 201.433,174.834 202,169.5C 203.635,165.043 204.635,160.377 205,155.5C 208.943,152.634 212.61,152.968 216,156.5C 216.176,160.688 216.676,164.688 217.5,168.5 Z"/></g>
<g><path style="opacity:1" fill="#d7b076" d="M 212.5,158.5 C 210.379,158.325 208.379,158.659 206.5,159.5C 206.5,158.5 206.5,157.5 206.5,156.5C 208.786,156.595 210.786,157.262 212.5,158.5 Z"/></g>
<g><path style="opacity:1" fill="#dfaf5e" d="M 362.5,144.5 C 370.526,152.194 378.526,159.861 386.5,167.5C 384.926,167.937 383.759,168.937 383,170.5C 382.506,168.866 382.34,167.199 382.5,165.5C 380.265,165.205 378.265,165.539 376.5,166.5C 375.5,166.167 374.833,165.5 374.5,164.5C 375.87,164.144 376.87,163.31 377.5,162C 374.987,158.935 372.32,156.101 369.5,153.5C 367.911,150.92 365.578,149.587 362.5,149.5C 362.5,147.833 362.5,146.167 362.5,144.5 Z"/></g>
<g><path style="opacity:1" fill="#e1ac68" d="M 55.5,141.5 C 55.8333,141.5 56.1667,141.5 56.5,141.5C 56.5,142.167 56.5,142.833 56.5,143.5C 55.6708,151.323 55.1708,159.323 55,167.5C 53.2317,168.682 53.0651,170.015 54.5,171.5C 52.8333,171.5 51.1667,171.5 49.5,171.5C 49.5,165.167 49.5,158.833 49.5,152.5C 50.1657,155.028 50.8324,157.694 51.5,160.5C 52.329,155.533 52.829,150.533 53,145.5C 53.4796,143.867 54.3129,142.534 55.5,141.5 Z"/></g>
<g><path style="opacity:0.973" fill="#e0ae4f" d="M 164.5,154.5 C 165.091,155.151 165.757,155.818 166.5,156.5C 165.167,157.167 163.833,157.833 162.5,158.5C 161.527,162.148 159.193,163.814 155.5,163.5C 158.167,160.167 161.167,157.167 164.5,154.5 Z"/></g>
<g><path style="opacity:1" fill="#fef0c9" d="M 212.5,158.5 C 213.939,160.588 214.606,162.921 214.5,165.5C 213.065,164.21 212.065,162.544 211.5,160.5C 210.155,161.347 209.155,162.513 208.5,164C 207.552,164.483 206.552,164.649 205.5,164.5C 205.366,162.708 205.699,161.042 206.5,159.5C 208.379,158.659 210.379,158.325 212.5,158.5 Z"/></g>
<g><path style="opacity:0.604" fill="#e4b242" d="M 109.5,162.5 C 110.525,162.897 110.692,163.563 110,164.5C 109.023,165.774 108.189,165.774 107.5,164.5C 107.5,163.167 108.167,162.5 109.5,162.5 Z"/></g>
<g><path style="opacity:0.425" fill="#d9ad7a" d="M 56.5,143.5 C 56.5,159.5 56.5,175.5 56.5,191.5C 55.5119,186.36 55.1786,181.026 55.5,175.5C 55.7678,173.901 55.4345,172.568 54.5,171.5C 53.0651,170.015 53.2317,168.682 55,167.5C 55.1708,159.323 55.6708,151.323 56.5,143.5 Z"/></g>
<g><path style="opacity:0.894" fill="#deae5f" d="M 295.5,162.5 C 296.75,162.577 297.583,163.244 298,164.5C 299.352,167.72 300.186,171.053 300.5,174.5C 299.5,174.5 298.5,174.5 297.5,174.5C 297.071,171.637 296.071,168.971 294.5,166.5C 293.14,167.18 291.807,167.847 290.5,168.5C 291.797,166.202 293.463,164.202 295.5,162.5 Z"/></g>
<g><path style="opacity:1" fill="#fdfcf9" d="M 214.5,165.5 C 214.5,166.833 214.5,168.167 214.5,169.5C 213.91,174.64 214.91,179.307 217.5,183.5C 217.5,183.833 217.5,184.167 217.5,184.5C 217.335,188.182 217.501,191.848 218,195.5C 218.852,196.571 219.685,197.571 220.5,198.5C 220.5,198.833 220.5,199.167 220.5,199.5C 220.5,199.833 220.5,200.167 220.5,200.5C 218.729,203.223 216.395,203.889 213.5,202.5C 212.596,201.791 212.263,200.791 212.5,199.5C 212.919,195.227 212.252,191.227 210.5,187.5C 210.631,186.761 210.464,186.094 210,185.5C 206.949,188.43 205.782,192.097 206.5,196.5C 206.5,197.833 206.5,199.167 206.5,200.5C 205.849,201.091 205.182,201.757 204.5,202.5C 204.049,207.096 202.882,211.43 201,215.5C 200.501,219.821 200.334,224.154 200.5,228.5C 199.448,228.351 198.448,228.517 197.5,229C 196.624,230.586 195.624,232.086 194.5,233.5C 192.433,230.257 190.766,226.924 189.5,223.5C 189.007,221.194 188.674,218.861 188.5,216.5C 187.838,212.534 187.505,208.534 187.5,204.5C 188.978,204.238 190.311,204.571 191.5,205.5C 192.691,208.637 193.691,211.803 194.5,215C 195.449,215.617 196.282,215.451 197,214.5C 197.49,213.207 197.657,211.873 197.5,210.5C 197.448,208.097 197.781,205.764 198.5,203.5C 198.5,202.167 198.5,200.833 198.5,199.5C 200.096,197.168 201.262,194.501 202,191.5C 203.382,184.226 204.216,176.893 204.5,169.5C 204.366,167.708 204.699,166.042 205.5,164.5C 206.552,164.649 207.552,164.483 208.5,164C 209.155,162.513 210.155,161.347 211.5,160.5C 212.065,162.544 213.065,164.21 214.5,165.5 Z"/></g>
<g><path style="opacity:0.635" fill="#e8af50" d="M 295.5,162.5 C 293.463,164.202 291.797,166.202 290.5,168.5C 291.038,170.117 291.371,171.784 291.5,173.5C 291.565,173.938 291.399,174.272 291,174.5C 290.943,172.09 289.776,170.756 287.5,170.5C 286.472,170.074 285.139,170.074 283.5,170.5C 283.062,170.565 282.728,170.399 282.5,170C 284.026,168.113 286.026,167.113 288.5,167C 289.252,166.329 289.586,165.496 289.5,164.5C 291.5,163.833 293.5,163.167 295.5,162.5 Z"/></g>
<g><path style="opacity:0.996" fill="#eac53b" d="M 355.5,170.5 C 355.443,171.609 355.11,172.609 354.5,173.5C 353.285,172.221 353.618,171.221 355.5,170.5 Z"/></g>
<g><path style="opacity:0.553" fill="#e1ad68" d="M 109.5,162.5 C 112.618,160.993 115.285,161.66 117.5,164.5C 116.065,165.913 115.065,167.58 114.5,169.5C 114.041,165.18 112.208,164.513 109,167.5C 108.51,168.793 108.343,170.127 108.5,171.5C 109.791,171.263 110.791,171.596 111.5,172.5C 110.596,173.209 110.263,174.209 110.5,175.5C 103.524,173.612 102.524,169.945 107.5,164.5C 108.189,165.774 109.023,165.774 110,164.5C 110.692,163.563 110.525,162.897 109.5,162.5 Z"/></g>
<g><path style="opacity:1" fill="#ecaa4f" d="M 117.5,164.5 C 118.071,167.978 118.071,171.311 117.5,174.5C 116.5,175.167 115.5,175.833 114.5,176.5C 113.041,176.567 111.708,176.234 110.5,175.5C 110.263,174.209 110.596,173.209 111.5,172.5C 113.5,172.5 114.5,171.5 114.5,169.5C 115.065,167.58 116.065,165.913 117.5,164.5 Z"/></g>
<g><path style="opacity:0.859" fill="#e0b05e" d="M 117.5,174.5 C 119.564,174.687 121.564,175.187 123.5,176C 124.833,177 124.833,178 123.5,179C 120.214,179.07 117.214,178.236 114.5,176.5C 115.5,175.833 116.5,175.167 117.5,174.5 Z"/></g>
<g><path style="opacity:0.898" fill="#e1ae60" d="M 289.5,164.5 C 289.586,165.496 289.252,166.329 288.5,167C 286.026,167.113 284.026,168.113 282.5,170C 282.728,170.399 283.062,170.565 283.5,170.5C 283.082,171.222 282.416,171.722 281.5,172C 282.929,174.69 283.929,177.523 284.5,180.5C 283.178,180.67 282.011,180.337 281,179.5C 279.833,176.5 278.667,173.5 277.5,170.5C 281.158,167.939 285.158,165.939 289.5,164.5 Z"/></g>
<g><path style="opacity:1" fill="#ebab60" d="M 287.5,170.5 C 289.776,170.756 290.943,172.09 291,174.5C 291.399,174.272 291.565,173.938 291.5,173.5C 292.404,174.209 292.737,175.209 292.5,176.5C 289.459,175.801 287.792,173.801 287.5,170.5 Z"/></g>
<g><path style="opacity:0.992" fill="#eaab5a" d="M 386.5,167.5 C 388.137,169.475 389.804,171.475 391.5,173.5C 390.7,175.741 389.034,176.741 386.5,176.5C 382.833,173.5 379.5,170.167 376.5,166.5C 378.265,165.539 380.265,165.205 382.5,165.5C 382.34,167.199 382.506,168.866 383,170.5C 383.759,168.937 384.926,167.937 386.5,167.5 Z"/></g>
<g><path style="opacity:1" fill="#e1ac5b" d="M 391.5,173.5 C 395.992,177.138 398.992,181.805 400.5,187.5C 399.5,187.5 398.5,187.5 397.5,187.5C 397.774,184.047 396.44,181.38 393.5,179.5C 391.889,180.32 391.222,181.654 391.5,183.5C 389.453,181.45 387.786,179.117 386.5,176.5C 389.034,176.741 390.7,175.741 391.5,173.5 Z"/></g>
<g><path style="opacity:0.895" fill="#dbaf64" d="M 50.5,173.5 C 51.1903,192.705 51.857,212.039 52.5,231.5C 51.609,230.89 50.609,230.557 49.5,230.5C 50.4623,211.534 50.7956,192.534 50.5,173.5 Z"/></g>
<g><path style="opacity:1" fill="#fff0da" d="M 214.5,169.5 C 215.167,169.5 215.5,169.833 215.5,170.5C 216.275,174.814 216.941,179.147 217.5,183.5C 214.91,179.307 213.91,174.64 214.5,169.5 Z"/></g>
<g><path style="opacity:1" fill="#e6ae53" d="M 49.5,171.5 C 51.1667,171.5 52.8333,171.5 54.5,171.5C 55.4345,172.568 55.7678,173.901 55.5,175.5C 55.1667,175.5 54.8333,175.5 54.5,175.5C 53.1685,183.807 52.5019,192.473 52.5,201.5C 52.5002,210.34 52.8336,219.007 53.5,227.5C 54.6225,229.288 54.7891,231.288 54,233.5C 53.2828,232.956 52.7828,232.289 52.5,231.5C 51.857,212.039 51.1903,192.705 50.5,173.5C 50.1667,172.833 49.8333,172.167 49.5,171.5 Z"/></g>
<g><path style="opacity:1" fill="#e0b058" d="M 148.5,175.5 C 149.816,177.766 151.15,180.099 152.5,182.5C 151.05,183.85 150.383,185.516 150.5,187.5C 148.5,187.5 146.5,187.5 144.5,187.5C 145.261,183.216 146.595,179.216 148.5,175.5 Z"/></g>
<g><path style="opacity:1" fill="#ddb67b" d="M 215.5,170.5 C 217.511,172.667 218.678,175.334 219,178.5C 219.661,184.005 220.494,189.338 221.5,194.5C 221.5,194.833 221.5,195.167 221.5,195.5C 221.5,195.833 221.5,196.167 221.5,196.5C 221.167,196.5 220.833,196.5 220.5,196.5C 219.864,192.325 218.864,188.325 217.5,184.5C 217.5,184.167 217.5,183.833 217.5,183.5C 216.941,179.147 216.275,174.814 215.5,170.5 Z"/></g>
<g><path style="opacity:1" fill="#eba958" d="M 400.5,187.5 C 401.338,187.842 401.672,188.508 401.5,189.5C 401.768,191.099 401.434,192.432 400.5,193.5C 399.335,195.109 398.001,195.443 396.5,194.5C 395.107,190.714 393.441,187.048 391.5,183.5C 391.222,181.654 391.889,180.32 393.5,179.5C 396.44,181.38 397.774,184.047 397.5,187.5C 398.5,187.5 399.5,187.5 400.5,187.5 Z"/></g>
<g><path style="opacity:1" fill="#fceecd" d="M 204.5,169.5 C 204.216,176.893 203.382,184.226 202,191.5C 201.262,194.501 200.096,197.168 198.5,199.5C 199.038,195.476 199.705,191.476 200.5,187.5C 200.5,186.833 200.5,186.167 200.5,185.5C 201.833,180.167 203.167,174.833 204.5,169.5 Z"/></g>
<g><path style="opacity:1" fill="#dfac69" d="M 354.5,174.5 C 354.5,191.5 354.5,208.5 354.5,225.5C 353.778,225.082 353.278,224.416 353,223.5C 352.833,215.333 352.667,207.167 352.5,199C 352.502,190.472 353.169,182.305 354.5,174.5 Z"/></g>
<g><path style="opacity:1" fill="#f9f2cf" d="M 210.5,187.5 C 209.542,187.953 208.708,188.619 208,189.5C 207.814,192.036 207.314,194.369 206.5,196.5C 205.782,192.097 206.949,188.43 210,185.5C 210.464,186.094 210.631,186.761 210.5,187.5 Z"/></g>
<g><path style="opacity:1" fill="#e8ab5d" d="M 54.5,175.5 C 53.1469,183.546 53.4803,191.546 55.5,199.5C 53.7719,208.709 53.1052,218.042 53.5,227.5C 52.8336,219.007 52.5002,210.34 52.5,201.5C 52.5019,192.473 53.1685,183.807 54.5,175.5 Z"/></g>
<g><path style="opacity:1" fill="#f0c891" d="M 210.5,187.5 C 212.252,191.227 212.919,195.227 212.5,199.5C 212.167,199.5 211.833,199.5 211.5,199.5C 211.752,196.68 211.252,194.014 210,191.5C 208.768,194.3 208.101,197.3 208,200.5C 207.617,201.056 207.117,201.389 206.5,201.5C 206.5,201.167 206.5,200.833 206.5,200.5C 206.5,199.167 206.5,197.833 206.5,196.5C 207.314,194.369 207.814,192.036 208,189.5C 208.708,188.619 209.542,187.953 210.5,187.5 Z"/></g>
<g><path style="opacity:1" fill="#f5a943" d="M 400.5,193.5 C 397.5,193.833 396.167,192.5 396.5,189.5C 397.833,189.5 399.167,189.5 400.5,189.5C 400.5,190.833 400.5,192.167 400.5,193.5 Z"/></g>
<g><path style="opacity:1" fill="#eaac5c" d="M 21.5,176.5 C 12.8295,183.84 8.49615,193.173 8.5,204.5C 7.68618,202.369 7.18618,200.036 7,197.5C 5.88607,201.456 5.05273,201.456 4.5,197.5C 3.5,197.5 2.5,197.5 1.5,197.5C 2.91593,188.662 6.91593,181.328 13.5,175.5C 15.1439,175.286 16.6439,175.62 18,176.5C 19.5545,174.073 20.7211,174.073 21.5,176.5 Z"/></g>
<g><path style="opacity:1" fill="#fdf6d9" d="M 217.5,184.5 C 218.864,188.325 219.864,192.325 220.5,196.5C 220.5,197.167 220.5,197.833 220.5,198.5C 219.685,197.571 218.852,196.571 218,195.5C 217.501,191.848 217.335,188.182 217.5,184.5 Z"/></g>
<g><path style="opacity:1" fill="#e1af6a" d="M 200.5,187.5 C 199.705,191.476 199.038,195.476 198.5,199.5C 198.5,200.833 198.5,202.167 198.5,203.5C 198.167,203.5 197.833,203.5 197.5,203.5C 197.5,198.167 197.5,192.833 197.5,187.5C 198.5,187.5 199.5,187.5 200.5,187.5 Z"/></g>
<g><path style="opacity:1" fill="#e4b169" d="M 162.5,196.5 C 172.658,195.341 182.992,195.175 193.5,196C 194.46,199.73 194.793,203.563 194.5,207.5C 193.662,207.158 193.328,206.492 193.5,205.5C 193.5,204.167 193.5,202.833 193.5,201.5C 193.5,200.833 193.5,200.167 193.5,199.5C 193.586,198.504 193.252,197.671 192.5,197C 182.481,197.361 172.481,197.195 162.5,196.5 Z"/></g>
<g><path style="opacity:1" fill="#f2ce9a" d="M 152.5,199.5 C 166.069,198.178 179.735,198.178 193.5,199.5C 193.5,200.167 193.5,200.833 193.5,201.5C 192.711,201.217 192.044,200.717 191.5,200C 178.504,199.5 165.504,199.333 152.5,199.5 Z"/></g>
<g><path style="opacity:1" fill="#f3cf9e" d="M 220.5,196.5 C 220.833,196.5 221.167,196.5 221.5,196.5C 231.626,198.158 241.96,199.158 252.5,199.5C 241.833,199.5 231.167,199.5 220.5,199.5C 220.5,199.167 220.5,198.833 220.5,198.5C 220.5,197.833 220.5,197.167 220.5,196.5 Z"/></g>
<g><path style="opacity:1" fill="#fff1c9" d="M 152.5,199.5 C 165.504,199.333 178.504,199.5 191.5,200C 192.044,200.717 192.711,201.217 193.5,201.5C 193.5,202.833 193.5,204.167 193.5,205.5C 192.872,202.39 190.872,200.89 187.5,201C 175.838,200.5 164.171,200.333 152.5,200.5C 152.5,202.5 152.5,204.5 152.5,206.5C 151.167,204.167 151.167,201.833 152.5,199.5 Z"/></g>
<g><path style="opacity:0.512" fill="#dbac6f" d="M 345.5,136.5 C 346.583,136.539 347.583,136.873 348.5,137.5C 349.167,177.665 349.833,217.665 350.5,257.5C 350.5,258.833 350.5,260.167 350.5,261.5C 348.901,261.768 347.568,261.434 346.5,260.5C 346.783,259.711 347.283,259.044 348,258.5C 348.667,218.833 348.667,179.167 348,139.5C 346.955,138.627 346.122,137.627 345.5,136.5 Z"/></g>
<g><path style="opacity:1" fill="#fefae1" d="M 193.5,205.5 C 193.328,206.492 193.662,207.158 194.5,207.5C 194.5,208.167 194.5,208.833 194.5,209.5C 195.031,212.767 196.031,213.1 197.5,210.5C 197.657,211.873 197.49,213.207 197,214.5C 196.282,215.451 195.449,215.617 194.5,215C 193.691,211.803 192.691,208.637 191.5,205.5C 190.311,204.571 188.978,204.238 187.5,204.5C 187.505,208.534 187.838,212.534 188.5,216.5C 187.833,215.5 187.167,214.5 186.5,213.5C 186.5,212.167 186.5,210.833 186.5,209.5C 186.586,208.504 186.252,207.671 185.5,207C 174.505,206.5 163.505,206.333 152.5,206.5C 152.5,204.5 152.5,202.5 152.5,200.5C 164.171,200.333 175.838,200.5 187.5,201C 190.872,200.89 192.872,202.39 193.5,205.5 Z"/></g>
<g><path style="opacity:1" fill="#fffae3" d="M 220.5,200.5 C 227.833,200.5 235.167,200.5 242.5,200.5C 242.5,202.5 242.5,204.5 242.5,206.5C 233.5,206.5 224.5,206.5 215.5,206.5C 214.655,205.329 213.989,203.995 213.5,202.5C 216.395,203.889 218.729,203.223 220.5,200.5 Z"/></g>
<g><path style="opacity:1" fill="#fff8d7" d="M 220.5,200.5 C 220.5,200.167 220.5,199.833 220.5,199.5C 231.167,199.5 241.833,199.5 252.5,199.5C 253.461,201.265 253.795,203.265 253.5,205.5C 249.936,206.423 246.269,206.756 242.5,206.5C 242.5,204.5 242.5,202.5 242.5,200.5C 235.167,200.5 227.833,200.5 220.5,200.5 Z"/></g>
<g><path style="opacity:0.986" fill="#daac6d" d="M 293.5,204.5 C 293.5,203.5 293.5,202.5 293.5,201.5C 292.5,201.5 291.5,201.5 290.5,201.5C 290.5,202.5 290.5,203.5 290.5,204.5C 288.659,200.531 289.825,199.197 294,200.5C 294.765,202.066 294.598,203.399 293.5,204.5 Z"/></g>
<g><path style="opacity:1" fill="#ddb055" d="M 293.5,204.5 C 292.5,205.833 291.5,205.833 290.5,204.5C 290.5,203.5 290.5,202.5 290.5,201.5C 291.5,201.5 292.5,201.5 293.5,201.5C 293.5,202.5 293.5,203.5 293.5,204.5 Z"/></g>
<g><path style="opacity:1" fill="#edab63" d="M 110.5,199.5 C 115.041,199.815 116.041,201.649 113.5,205C 109.537,205.118 108.537,203.284 110.5,199.5 Z"/></g>
<g><path style="opacity:1" fill="#e4b06b" d="M 211.5,199.5 C 211.833,199.5 212.167,199.5 212.5,199.5C 212.263,200.791 212.596,201.791 213.5,202.5C 213.989,203.995 214.655,205.329 215.5,206.5C 215.5,206.833 215.5,207.167 215.5,207.5C 215.5,207.833 215.5,208.167 215.5,208.5C 214.21,207.942 213.377,206.942 213,205.5C 212.667,205.833 212.333,206.167 212,206.5C 211.503,204.19 211.337,201.857 211.5,199.5 Z"/></g>
<g><path style="opacity:1" fill="#f2a752" d="M 395.5,207.5 C 395.629,205.784 395.962,204.117 396.5,202.5C 397.268,201.737 397.768,200.737 398,199.5C 400.078,202.87 400.911,206.537 400.5,210.5C 399.167,210.5 397.833,210.5 396.5,210.5C 396.737,209.209 396.404,208.209 395.5,207.5 Z"/></g>
<g><path style="opacity:1" fill="#ebbf8e" d="M 197.5,203.5 C 197.833,203.5 198.167,203.5 198.5,203.5C 197.781,205.764 197.448,208.097 197.5,210.5C 196.031,213.1 195.031,212.767 194.5,209.5C 196.06,207.844 197.06,205.844 197.5,203.5 Z"/></g>
<g><path style="opacity:1" fill="#fddfb6" d="M 253.5,205.5 C 253.5,206.833 252.833,207.5 251.5,207.5C 239.5,207.5 227.5,207.5 215.5,207.5C 215.5,207.167 215.5,206.833 215.5,206.5C 224.5,206.5 233.5,206.5 242.5,206.5C 246.269,206.756 249.936,206.423 253.5,205.5 Z"/></g>
<g><path style="opacity:1" fill="#eac99c" d="M 152.5,206.5 C 163.505,206.333 174.505,206.5 185.5,207C 186.252,207.671 186.586,208.504 186.5,209.5C 175.576,208.689 164.576,208.189 153.5,208C 152.944,207.617 152.611,207.117 152.5,206.5 Z"/></g>
<g><path style="opacity:1" fill="#ddae6d" d="M 162.5,196.5 C 172.481,197.195 182.481,197.361 192.5,197C 193.252,197.671 193.586,198.504 193.5,199.5C 179.735,198.178 166.069,198.178 152.5,199.5C 151.167,201.833 151.167,204.167 152.5,206.5C 152.611,207.117 152.944,207.617 153.5,208C 164.576,208.189 175.576,208.689 186.5,209.5C 186.5,210.833 186.5,212.167 186.5,213.5C 182.949,212.061 179.283,210.728 175.5,209.5C 174.692,209.808 174.025,210.308 173.5,211C 166.784,211.454 160.117,211.788 153.5,212C 152.299,211.097 151.465,209.931 151,208.5C 150.502,205.518 150.335,202.518 150.5,199.5C 150.33,198.178 150.663,197.011 151.5,196C 155.203,195.421 158.869,195.588 162.5,196.5 Z"/></g>
<g><path style="opacity:1" fill="#e9ac51" d="M 1.5,197.5 C 2.5,197.5 3.5,197.5 4.5,197.5C 5.05273,201.456 5.88607,201.456 7,197.5C 7.18618,200.036 7.68618,202.369 8.5,204.5C 9.038,206.117 9.37133,207.784 9.5,209.5C 9.29142,210.922 8.79142,212.255 8,213.5C 6.89037,211.963 5.39037,211.297 3.5,211.5C 1.88871,207.01 1.22205,202.343 1.5,197.5 Z"/></g>
<g><path style="opacity:1" fill="#dfad69" d="M 255.5,207.5 C 254.748,209.1 253.748,210.6 252.5,212C 248.082,212.976 243.915,212.476 240,210.5C 235.375,211.862 230.709,212.862 226,213.5C 225,212.833 224,212.167 223,211.5C 219.242,213.392 216.742,212.392 215.5,208.5C 219.636,208.308 223.636,208.974 227.5,210.5C 235.593,209.112 243.593,208.112 251.5,207.5C 252.833,207.5 253.5,206.833 253.5,205.5C 253.795,203.265 253.461,201.265 252.5,199.5C 241.96,199.158 231.626,198.158 221.5,196.5C 221.5,196.167 221.5,195.833 221.5,195.5C 223.126,195.062 224.793,194.728 226.5,194.5C 235.147,195.246 243.813,195.746 252.5,196C 253.849,196.772 254.682,197.939 255,199.5C 255.497,202.146 255.664,204.813 255.5,207.5 Z"/></g>
<g><path style="opacity:1" fill="#e8ab5a" d="M 211.5,199.5 C 211.337,201.857 211.503,204.19 212,206.5C 212.333,206.167 212.667,205.833 213,205.5C 213.377,206.942 214.21,207.942 215.5,208.5C 216.742,212.392 219.242,213.392 223,211.5C 224,212.167 225,212.833 226,213.5C 230.709,212.862 235.375,211.862 240,210.5C 243.915,212.476 248.082,212.976 252.5,212C 253.748,210.6 254.748,209.1 255.5,207.5C 256.79,208.058 257.623,209.058 258,210.5C 259.145,209.316 260.312,209.316 261.5,210.5C 260.542,214.379 259.209,218.045 257.5,221.5C 257.264,219.027 255.931,217.36 253.5,216.5C 252.614,217.325 252.281,218.325 252.5,219.5C 240.847,220.126 229.18,219.46 217.5,217.5C 213.013,219.197 209.013,218.53 205.5,215.5C 206.244,211.881 206.577,208.215 206.5,204.5C 206.5,203.5 206.5,202.5 206.5,201.5C 207.117,201.389 207.617,201.056 208,200.5C 208.101,197.3 208.768,194.3 210,191.5C 211.252,194.014 211.752,196.68 211.5,199.5 Z"/></g>
<g><path style="opacity:1" fill="#dfb987" d="M 215.5,208.5 C 215.5,208.167 215.5,207.833 215.5,207.5C 227.5,207.5 239.5,207.5 251.5,207.5C 243.593,208.112 235.593,209.112 227.5,210.5C 223.636,208.974 219.636,208.308 215.5,208.5 Z"/></g>
<g><path style="opacity:1" fill="#e9ab55" d="M 150.5,213.5 C 159.313,214.219 168.146,214.885 177,215.5C 179.352,215.695 181.352,215.028 183,213.5C 184.158,213.998 184.991,214.831 185.5,216C 184.732,218.136 184.066,220.303 183.5,222.5C 185.64,226.695 186.307,231.029 185.5,235.5C 184.167,236.833 182.833,236.833 181.5,235.5C 180.996,238.342 179.329,239.675 176.5,239.5C 176.691,242.983 177.357,246.316 178.5,249.5C 175.14,249.384 171.807,249.051 168.5,248.5C 167.833,248.167 167.167,247.833 166.5,247.5C 167.5,242.5 165.5,240.5 160.5,241.5C 159.5,241.167 158.833,240.5 158.5,239.5C 158.5,237.5 158.5,235.5 158.5,233.5C 156.435,233.483 154.435,233.15 152.5,232.5C 150.975,230.784 149.975,228.784 149.5,226.5C 150.339,225.359 151.006,224.026 151.5,222.5C 151.607,219.6 151.273,216.6 150.5,213.5 Z"/></g>
<g><path style="opacity:1" fill="#eaab55" d="M 205.5,215.5 C 209.013,218.53 213.013,219.197 217.5,217.5C 229.18,219.46 240.847,220.126 252.5,219.5C 252.281,218.325 252.614,217.325 253.5,216.5C 255.931,217.36 257.264,219.027 257.5,221.5C 247.435,245.866 229.102,258.533 202.5,259.5C 196.275,259.574 190.275,258.574 184.5,256.5C 181.283,251.851 182.116,248.184 187,245.5C 188.812,245.493 190.312,246.16 191.5,247.5C 193.488,246.711 193.821,245.545 192.5,244C 194.81,243.503 197.143,243.337 199.5,243.5C 199.222,245.346 199.889,246.68 201.5,247.5C 203.637,246.132 205.97,245.132 208.5,244.5C 207.271,243.719 205.938,243.219 204.5,243C 206.435,235.45 206.769,227.95 205.5,220.5C 205.5,218.833 205.5,217.167 205.5,215.5 Z"/></g>
<g><path style="opacity:1" fill="#eea84f" d="M 389.5,217.5 C 390.026,215.77 391.026,214.436 392.5,213.5C 394.101,212.357 394.767,213.024 394.5,215.5C 394.402,217.937 393.402,219.937 391.5,221.5C 390.828,220.051 390.161,218.718 389.5,217.5 Z"/></g>
<g><path style="opacity:0.98" fill="#ebaa5b" d="M 9.5,209.5 C 14.3706,217.38 20.0372,224.714 26.5,231.5C 25.9518,233.626 25.2852,235.626 24.5,237.5C 23.5,237.167 22.8333,236.5 22.5,235.5C 23.3764,235.631 24.0431,235.298 24.5,234.5C 22.8759,231.866 20.5426,230.533 17.5,230.5C 11.3215,225.316 6.65481,218.982 3.5,211.5C 5.39037,211.297 6.89037,211.963 8,213.5C 8.79142,212.255 9.29142,210.922 9.5,209.5 Z"/></g>
<g><path style="opacity:1" fill="#e7be8c" d="M 186.5,213.5 C 187.167,214.5 187.833,215.5 188.5,216.5C 188.674,218.861 189.007,221.194 189.5,223.5C 189.676,226.727 190.343,229.727 191.5,232.5C 191.5,234.833 191.5,237.167 191.5,239.5C 189.257,231.075 187.591,222.408 186.5,213.5 Z"/></g>
<g><path style="opacity:1" fill="#e4b272" d="M 206.5,204.5 C 206.577,208.215 206.244,211.881 205.5,215.5C 205.5,217.167 205.5,218.833 205.5,220.5C 203.673,226.956 203.006,233.623 203.5,240.5C 201.784,240.629 200.117,240.962 198.5,241.5C 198.5,241.167 198.5,240.833 198.5,240.5C 199.167,240.5 199.5,240.167 199.5,239.5C 200.496,239.586 201.329,239.252 202,238.5C 202.499,234.179 202.666,229.846 202.5,225.5C 203.289,218.269 204.622,211.269 206.5,204.5 Z"/></g>
<g><path style="opacity:0.959" fill="#eda85f" d="M 144.5,211.5 C 146.282,212.72 148.282,213.386 150.5,213.5C 151.273,216.6 151.607,219.6 151.5,222.5C 151.006,224.026 150.339,225.359 149.5,226.5C 146.86,221.915 145.194,216.915 144.5,211.5 Z"/></g>
<g><path style="opacity:0.995" fill="#e8aa5f" d="M 401.5,189.5 C 405.193,201.743 402.693,212.743 394,222.5C 387.631,229.036 381.131,235.369 374.5,241.5C 375.028,240.153 375.195,238.819 375,237.5C 373.479,237.481 371.979,237.148 370.5,236.5C 376.5,229.833 382.833,223.5 389.5,217.5C 390.161,218.718 390.828,220.051 391.5,221.5C 393.402,219.937 394.402,217.937 394.5,215.5C 394.767,213.024 394.101,212.357 392.5,213.5C 392.992,211.181 393.992,209.181 395.5,207.5C 396.404,208.209 396.737,209.209 396.5,210.5C 397.833,210.5 399.167,210.5 400.5,210.5C 400.911,206.537 400.078,202.87 398,199.5C 397.768,200.737 397.268,201.737 396.5,202.5C 396.5,199.833 396.5,197.167 396.5,194.5C 398.001,195.443 399.335,195.109 400.5,193.5C 401.434,192.432 401.768,191.099 401.5,189.5 Z"/></g>
<g><path style="opacity:0.893" fill="#f0a55b" d="M 120.5,226.5 C 121.29,227.401 122.29,228.068 123.5,228.5C 122.737,229.268 121.737,229.768 120.5,230C 121.252,230.671 121.586,231.504 121.5,232.5C 119.628,230.396 117.295,229.063 114.5,228.5C 116.214,227.262 118.214,226.595 120.5,226.5 Z"/></g>
<g><path style="opacity:0.969" fill="#e5ac54" d="M 129.5,228.5 C 129.808,230.924 129.474,233.257 128.5,235.5C 127.893,235.376 127.56,235.043 127.5,234.5C 128.113,231.031 126.779,229.031 123.5,228.5C 122.29,228.068 121.29,227.401 120.5,226.5C 122.65,225.33 124.984,224.33 127.5,223.5C 128.95,224.85 129.617,226.516 129.5,228.5 Z"/></g>
<g><path style="opacity:1" fill="#fffaeb" d="M 206.5,200.5 C 206.5,200.833 206.5,201.167 206.5,201.5C 206.5,202.5 206.5,203.5 206.5,204.5C 204.622,211.269 203.289,218.269 202.5,225.5C 201.566,226.568 201.232,227.901 201.5,229.5C 198.807,232.539 197.807,236.206 198.5,240.5C 196.856,240.714 195.356,240.38 194,239.5C 193.302,236.996 192.469,234.663 191.5,232.5C 190.343,229.727 189.676,226.727 189.5,223.5C 190.766,226.924 192.433,230.257 194.5,233.5C 195.624,232.086 196.624,230.586 197.5,229C 198.448,228.517 199.448,228.351 200.5,228.5C 200.334,224.154 200.501,219.821 201,215.5C 202.882,211.43 204.049,207.096 204.5,202.5C 205.182,201.757 205.849,201.091 206.5,200.5 Z"/></g>
<g><path style="opacity:1" fill="#e2ad5d" d="M 114.5,228.5 C 117.295,229.063 119.628,230.396 121.5,232.5C 121.5,232.833 121.5,233.167 121.5,233.5C 120.5,233.833 119.833,234.5 119.5,235.5C 118.937,233.68 117.771,232.347 116,231.5C 113.842,232.451 111.675,232.951 109.5,233C 108.663,231.989 108.33,230.822 108.5,229.5C 110.5,229.167 112.5,228.833 114.5,228.5 Z"/></g>
<g><path style="opacity:0.831" fill="#daaf63" d="M 129.5,228.5 C 130.634,230.966 130.801,233.633 130,236.5C 129.617,237.056 129.117,237.389 128.5,237.5C 126.5,237.5 124.5,237.5 122.5,237.5C 122.5,236.5 122.5,235.5 122.5,234.5C 124.167,235.833 125.833,235.833 127.5,234.5C 127.56,235.043 127.893,235.376 128.5,235.5C 129.474,233.257 129.808,230.924 129.5,228.5 Z"/></g>
<g><path style="opacity:1" fill="#e5b14a" d="M 17.5,230.5 C 20.5426,230.533 22.8759,231.866 24.5,234.5C 24.0431,235.298 23.3764,235.631 22.5,235.5C 19.8333,234.833 18.1667,233.167 17.5,230.5 Z"/></g>
<g><path style="opacity:0.349" fill="#e8aa57" d="M 279.5,232.5 C 278.817,234.176 277.483,234.843 275.5,234.5C 273.656,233.796 273.156,232.463 274,230.5C 274.735,228.129 275.568,225.795 276.5,223.5C 277.325,222.614 278.325,222.281 279.5,222.5C 279.452,225.313 278.785,227.979 277.5,230.5C 277.855,231.522 278.522,232.189 279.5,232.5 Z"/></g>
<g><path style="opacity:0.533" fill="#d7b065" d="M 294.5,234.5 C 293.833,233.833 293.167,233.167 292.5,232.5C 292.881,228.701 294.214,228.035 296.5,230.5C 296.006,232.026 295.339,233.359 294.5,234.5 Z"/></g>
<g><path style="opacity:1" fill="#dfac6c" d="M 54.5,175.5 C 54.8333,175.5 55.1667,175.5 55.5,175.5C 55.1786,181.026 55.5119,186.36 56.5,191.5C 56.3334,214.502 56.5,237.502 57,260.5C 57.7172,261.044 58.2172,261.711 58.5,262.5C 57.8333,262.5 57.1667,262.5 56.5,262.5C 55.791,261.596 54.791,261.263 53.5,261.5C 53.8254,256.401 53.3254,251.401 52,246.5C 51.0147,248.175 50.1814,249.842 49.5,251.5C 49.5,244.5 49.5,237.5 49.5,230.5C 50.609,230.557 51.609,230.89 52.5,231.5C 52.7828,232.289 53.2828,232.956 54,233.5C 54.7891,231.288 54.6225,229.288 53.5,227.5C 53.1052,218.042 53.7719,208.709 55.5,199.5C 53.4803,191.546 53.1469,183.546 54.5,175.5 Z"/></g>
<g><path style="opacity:1" fill="#dab06c" d="M 152.5,232.5 C 154.435,233.15 156.435,233.483 158.5,233.5C 158.5,235.5 158.5,237.5 158.5,239.5C 155.8,237.766 153.8,235.432 152.5,232.5 Z"/></g>
<g><path style="opacity:0.887" fill="#e9aa59" d="M 348.5,81.5 C 349.473,83.9479 349.806,86.6146 349.5,89.5C 349.5,101.5 349.5,113.5 349.5,125.5C 353.908,125.062 355.575,127.062 354.5,131.5C 349.614,130.195 348.947,131.028 352.5,134C 351.009,136.621 350.342,139.455 350.5,142.5C 351.833,142.5 353.167,142.5 354.5,142.5C 354.205,144.735 354.539,146.735 355.5,148.5C 355.5,155.833 355.5,163.167 355.5,170.5C 353.618,171.221 353.285,172.221 354.5,173.5C 354.5,173.833 354.5,174.167 354.5,174.5C 353.169,182.305 352.502,190.472 352.5,199C 352.667,207.167 352.833,215.333 353,223.5C 353.278,224.416 353.778,225.082 354.5,225.5C 355.274,233.786 355.774,242.12 356,250.5C 357.704,248.627 359.537,246.96 361.5,245.5C 365.159,247.249 367.826,246.249 369.5,242.5C 368.398,241.824 367.398,241.158 366.5,240.5C 367.5,238.833 368.833,237.5 370.5,236.5C 371.979,237.148 373.479,237.481 375,237.5C 375.195,238.819 375.028,240.153 374.5,241.5C 368.167,248.167 361.833,254.833 355.5,261.5C 354.539,259.735 354.205,257.735 354.5,255.5C 352.517,255.157 351.183,255.824 350.5,257.5C 349.833,217.665 349.167,177.665 348.5,137.5C 347.583,136.873 346.583,136.539 345.5,136.5C 331.5,123.167 317.833,109.5 304.5,95.5C 306.685,95.2964 308.685,94.6298 310.5,93.5C 311.585,95.5869 313.251,96.9202 315.5,97.5C 326.465,107.965 337.298,118.631 348,129.5C 348.5,113.503 348.667,97.5035 348.5,81.5 Z"/></g>
<g><path style="opacity:1" fill="#e0a971" d="M 121.5,233.5 C 122.167,233.5 122.5,233.833 122.5,234.5C 122.5,235.5 122.5,236.5 122.5,237.5C 124.5,237.5 126.5,237.5 128.5,237.5C 124.925,240.244 121.925,239.577 119.5,235.5C 119.833,234.5 120.5,233.833 121.5,233.5 Z"/></g>
<g><path style="opacity:1" fill="#e7ab5a" d="M 150.5,199.5 C 150.335,202.518 150.502,205.518 151,208.5C 151.465,209.931 152.299,211.097 153.5,212C 160.117,211.788 166.784,211.454 173.5,211C 174.025,210.308 174.692,209.808 175.5,209.5C 179.283,210.728 182.949,212.061 186.5,213.5C 187.591,222.408 189.257,231.075 191.5,239.5C 193.479,241.168 195.812,241.834 198.5,241.5C 200.117,240.962 201.784,240.629 203.5,240.5C 203.006,233.623 203.673,226.956 205.5,220.5C 206.769,227.95 206.435,235.45 204.5,243C 205.938,243.219 207.271,243.719 208.5,244.5C 205.97,245.132 203.637,246.132 201.5,247.5C 199.889,246.68 199.222,245.346 199.5,243.5C 197.143,243.337 194.81,243.503 192.5,244C 193.821,245.545 193.488,246.711 191.5,247.5C 190.312,246.16 188.812,245.493 187,245.5C 182.116,248.184 181.283,251.851 184.5,256.5C 178.57,254.868 173.236,252.202 168.5,248.5C 171.807,249.051 175.14,249.384 178.5,249.5C 177.357,246.316 176.691,242.983 176.5,239.5C 179.329,239.675 180.996,238.342 181.5,235.5C 182.833,236.833 184.167,236.833 185.5,235.5C 186.307,231.029 185.64,226.695 183.5,222.5C 184.066,220.303 184.732,218.136 185.5,216C 184.991,214.831 184.158,213.998 183,213.5C 181.352,215.028 179.352,215.695 177,215.5C 168.146,214.885 159.313,214.219 150.5,213.5C 149.256,208.702 149.256,204.035 150.5,199.5 Z"/></g>
<g><path style="opacity:1" fill="#fef4d3" d="M 201.5,229.5 C 201.041,232.877 200.374,236.211 199.5,239.5C 199.5,240.167 199.167,240.5 198.5,240.5C 197.807,236.206 198.807,232.539 201.5,229.5 Z"/></g>
<g><path style="opacity:1" fill="#fdeac3" d="M 191.5,232.5 C 192.469,234.663 193.302,236.996 194,239.5C 195.356,240.38 196.856,240.714 198.5,240.5C 198.5,240.833 198.5,241.167 198.5,241.5C 195.812,241.834 193.479,241.168 191.5,239.5C 191.5,237.167 191.5,234.833 191.5,232.5 Z"/></g>
<g><path style="opacity:0.878" fill="#e2ab60" d="M 292.5,232.5 C 293.167,233.167 293.833,233.833 294.5,234.5C 294.422,237.491 293.088,239.491 290.5,240.5C 285.246,238.866 280.246,236.866 275.5,234.5C 277.483,234.843 278.817,234.176 279.5,232.5C 280.15,232.804 280.817,233.137 281.5,233.5C 282.498,231.51 283.498,229.51 284.5,227.5C 285.325,226.614 286.325,226.281 287.5,226.5C 286.859,229.221 286.359,231.888 286,234.5C 289.328,237.415 291.494,236.749 292.5,232.5 Z"/></g>
<g><path style="opacity:1" fill="#e2be8a" d="M 202.5,225.5 C 202.666,229.846 202.499,234.179 202,238.5C 201.329,239.252 200.496,239.586 199.5,239.5C 200.374,236.211 201.041,232.877 201.5,229.5C 201.232,227.901 201.566,226.568 202.5,225.5 Z"/></g>
<g><path style="opacity:1" fill="#e1ab6c" d="M 160.5,241.5 C 165.5,240.5 167.5,242.5 166.5,247.5C 164.167,245.833 162.167,243.833 160.5,241.5 Z"/></g>
<g><path style="opacity:1" fill="#e7ae4f" d="M 366.5,240.5 C 367.398,241.158 368.398,241.824 369.5,242.5C 367.826,246.249 365.159,247.249 361.5,245.5C 362.833,243.5 364.5,241.833 366.5,240.5 Z"/></g>
<g><path style="opacity:1" fill="#e9aa5e" d="M 26.5,231.5 C 34.1316,238.631 41.6316,245.964 49,253.5C 49.4643,252.906 49.631,252.239 49.5,251.5C 50.1814,249.842 51.0147,248.175 52,246.5C 53.3254,251.401 53.8254,256.401 53.5,261.5C 54.791,261.263 55.791,261.596 56.5,262.5C 54.9719,262.517 54.4719,263.184 55,264.5C 59.9715,264.307 62.4715,266.64 62.5,271.5C 65.974,272.741 68.974,274.741 71.5,277.5C 72.1067,277.376 72.44,277.043 72.5,276.5C 73.8333,277.167 74.8333,278.167 75.5,279.5C 72.6146,279.194 69.9479,279.527 67.5,280.5C 64.1667,277.833 61.1667,274.833 58.5,271.5C 60.688,269.908 60.688,268.574 58.5,267.5C 56.9644,268.249 55.6311,269.249 54.5,270.5C 54.2646,266.787 52.598,264.12 49.5,262.5C 40.8333,254.5 32.5,246.167 24.5,237.5C 25.2852,235.626 25.9518,233.626 26.5,231.5 Z"/></g>
<g><path style="opacity:1" fill="#e6ae53" d="M 56.5,262.5 C 57.1667,262.5 57.8333,262.5 58.5,262.5C 63.5,266.833 68.1667,271.5 72.5,276.5C 72.44,277.043 72.1067,277.376 71.5,277.5C 68.974,274.741 65.974,272.741 62.5,271.5C 62.4715,266.64 59.9715,264.307 55,264.5C 54.4719,263.184 54.9719,262.517 56.5,262.5 Z"/></g>
<g><path style="opacity:0.974" fill="#e5ab64" d="M 150.5,272.5 C 150.027,271.094 149.027,270.427 147.5,270.5C 149.126,267.049 151.46,264.549 154.5,263C 155.517,264.049 155.684,265.216 155,266.5C 153.637,268.684 152.137,270.684 150.5,272.5 Z"/></g>
<g><path style="opacity:0.755" fill="#e7ae52" d="M 147.5,270.5 C 149.027,270.427 150.027,271.094 150.5,272.5C 148.688,274.461 147.688,276.794 147.5,279.5C 146.652,280.625 145.652,280.625 144.5,279.5C 143.97,276.175 144.97,273.175 147.5,270.5 Z"/></g>
<g><path style="opacity:1" fill="#eea75b" d="M 338.5,268.5 C 340.456,269.492 342.456,270.492 344.5,271.5C 342.167,274.5 339.5,277.167 336.5,279.5C 335.932,276.086 334.266,274.753 331.5,275.5C 333.5,272.833 335.833,270.5 338.5,268.5 Z"/></g>
<g><path style="opacity:0.88" fill="#eaab55" d="M 355.5,261.5 C 355.667,280.17 355.5,298.836 355,317.5C 354.689,321.09 353.856,324.423 352.5,327.5C 350.89,324.797 349.89,321.797 349.5,318.5C 349.83,302.658 349.496,286.991 348.5,271.5C 348.649,270.448 348.483,269.448 348,268.5C 346.961,269.71 345.794,270.71 344.5,271.5C 342.456,270.492 340.456,269.492 338.5,268.5C 340.833,265.5 343.5,262.833 346.5,260.5C 347.568,261.434 348.901,261.768 350.5,261.5C 350.5,260.167 350.5,258.833 350.5,257.5C 351.183,255.824 352.517,255.157 354.5,255.5C 354.205,257.735 354.539,259.735 355.5,261.5 Z"/></g>
<g><path style="opacity:1" fill="#e2ac67" d="M 251.5,262.5 C 253.104,263.287 253.771,264.62 253.5,266.5C 248.914,266.68 247.747,268.68 250,272.5C 253.546,270.707 257.046,270.54 260.5,272C 264.126,279.889 261.459,284.056 252.5,284.5C 252.809,281.654 254.475,280.154 257.5,280C 260.294,277.42 259.794,275.587 256,274.5C 248.477,277.588 244.81,275.255 245,267.5C 246.805,265.174 248.972,263.508 251.5,262.5 Z"/></g>
<g><path style="opacity:1" fill="#d9ad75" d="M 49.5,264.5 C 50.1174,264.611 50.6174,264.944 51,265.5C 51.1981,280.525 51.6981,295.525 52.5,310.5C 51.0629,312.577 50.3962,314.91 50.5,317.5C 49.5033,300.008 49.1699,282.341 49.5,264.5 Z"/></g>
<g><path style="opacity:1" fill="#deae69" d="M 49.5,262.5 C 52.598,264.12 54.2646,266.787 54.5,270.5C 55.6311,269.249 56.9644,268.249 58.5,267.5C 60.688,268.574 60.688,269.908 58.5,271.5C 57.8826,271.389 57.3826,271.056 57,270.5C 56.5001,286.83 56.3334,303.163 56.5,319.5C 54.9113,318.128 53.5779,316.461 52.5,314.5C 51.513,317.768 51.1796,321.102 51.5,324.5C 50.5318,322.393 50.1984,320.059 50.5,317.5C 50.3962,314.91 51.0629,312.577 52.5,310.5C 51.6981,295.525 51.1981,280.525 51,265.5C 50.6174,264.944 50.1174,264.611 49.5,264.5C 49.5,263.833 49.5,263.167 49.5,262.5 Z"/></g>
<g><path style="opacity:1" fill="#e3ad61" d="M 144.5,279.5 C 145.652,280.625 146.652,280.625 147.5,279.5C 148.627,280.122 149.627,280.955 150.5,282C 155.616,281.586 159.116,278.753 161,273.5C 162.264,271.393 164.097,270.393 166.5,270.5C 164.44,276.779 160.773,281.946 155.5,286C 149.991,286.891 146.324,284.724 144.5,279.5 Z"/></g>
<g><path style="opacity:1" fill="#e8a950" d="M 336.5,279.5 C 335.833,280.833 334.833,281.833 333.5,282.5C 331.5,282.833 329.5,283.167 327.5,283.5C 327.5,282.167 327.5,280.833 327.5,279.5C 328.5,277.833 329.833,276.5 331.5,275.5C 334.266,274.753 335.932,276.086 336.5,279.5 Z"/></g>
<g><path style="opacity:1" fill="#e2ad5c" d="M 75.5,279.5 C 77.5,280.833 79.1667,282.5 80.5,284.5C 78.8333,284.5 77.1667,284.5 75.5,284.5C 75.2627,285.791 75.596,286.791 76.5,287.5C 76.5,288.167 76.5,288.833 76.5,289.5C 73.1667,286.833 70.1667,283.833 67.5,280.5C 69.9479,279.527 72.6146,279.194 75.5,279.5 Z"/></g>
<g><path style="opacity:1" fill="#d7ac6e" d="M 327.5,279.5 C 327.5,280.833 327.5,282.167 327.5,283.5C 329.5,283.167 331.5,282.833 333.5,282.5C 332.294,285.139 330.294,285.972 327.5,285C 326.193,283.057 326.193,281.223 327.5,279.5 Z"/></g>
<g><path style="opacity:0.959" fill="#e8ad4f" d="M 80.5,284.5 C 83.5,286.833 86.1667,289.5 88.5,292.5C 85.9693,295.379 84.9693,294.712 85.5,290.5C 84.1667,290.5 82.8333,290.5 81.5,290.5C 81.5,289.167 81.5,287.833 81.5,286.5C 79.7085,286.366 78.0418,286.699 76.5,287.5C 75.596,286.791 75.2627,285.791 75.5,284.5C 77.1667,284.5 78.8333,284.5 80.5,284.5 Z"/></g>
<g><path style="opacity:0.136" fill="#dbae68" d="M 348.5,271.5 C 349.496,286.991 349.83,302.658 349.5,318.5C 349.311,322.998 348.311,327.331 346.5,331.5C 345.893,331.376 345.56,331.043 345.5,330.5C 346.429,326.873 347.263,323.207 348,319.5C 348.5,303.503 348.667,287.503 348.5,271.5 Z"/></g>
<g><path style="opacity:0.056" fill="#d7b080" d="M 204.5,281.5 C 203.603,280.402 202.77,280.402 202,281.5C 201.501,285.486 201.334,289.486 201.5,293.5C 200.514,289.03 200.181,284.363 200.5,279.5C 202.483,279.157 203.817,279.824 204.5,281.5 Z"/></g>
<g><path style="opacity:0.978" fill="#dead66" d="M 204.5,281.5 C 204.5,286.833 204.5,292.167 204.5,297.5C 206.833,297.5 209.167,297.5 211.5,297.5C 211.5,297.833 211.5,298.167 211.5,298.5C 208.552,298.777 205.719,298.444 203,297.5C 202.517,298.448 202.351,299.448 202.5,300.5C 201.532,298.393 201.198,296.059 201.5,293.5C 201.334,289.486 201.501,285.486 202,281.5C 202.77,280.402 203.603,280.402 204.5,281.5 Z"/></g>
<g><path style="opacity:1" fill="#e1ae54" d="M 211.5,298.5 C 211.5,299.167 211.5,299.833 211.5,300.5C 208.5,300.5 205.5,300.5 202.5,300.5C 202.351,299.448 202.517,298.448 203,297.5C 205.719,298.444 208.552,298.777 211.5,298.5 Z"/></g>
<g><path style="opacity:0.992" fill="#eba17a" d="M 211.5,297.5 C 214.167,298.5 214.167,299.5 211.5,300.5C 211.5,299.833 211.5,299.167 211.5,298.5C 211.5,298.167 211.5,297.833 211.5,297.5 Z"/></g>
<g><path style="opacity:1" fill="#eca85c" d="M 88.5,292.5 C 91.5,294.833 94.1667,297.5 96.5,300.5C 96.1459,303.421 97.1459,305.754 99.5,307.5C 98.3881,308.265 97.7214,309.265 97.5,310.5C 90.1667,303.833 83.1667,296.833 76.5,289.5C 76.5,288.833 76.5,288.167 76.5,287.5C 78.0418,286.699 79.7085,286.366 81.5,286.5C 81.5,287.833 81.5,289.167 81.5,290.5C 82.8333,290.5 84.1667,290.5 85.5,290.5C 84.9693,294.712 85.9693,295.379 88.5,292.5 Z"/></g>
<g><path style="opacity:0.948" fill="#e6ad57" d="M 96.5,300.5 C 103.167,306.5 109.5,312.833 115.5,319.5C 113.708,319.634 112.042,319.301 110.5,318.5C 109.766,317.292 109.433,315.959 109.5,314.5C 107.142,314.253 105.142,314.919 103.5,316.5C 101.167,314.833 99.1667,312.833 97.5,310.5C 97.7214,309.265 98.3881,308.265 99.5,307.5C 97.1459,305.754 96.1459,303.421 96.5,300.5 Z"/></g>
<g><path style="opacity:1" fill="#e3ab68" d="M 110.5,318.5 C 108.255,319.292 107.922,320.625 109.5,322.5C 107.167,320.833 105.167,318.833 103.5,316.5C 105.142,314.919 107.142,314.253 109.5,314.5C 109.433,315.959 109.766,317.292 110.5,318.5 Z"/></g>
<g><path style="opacity:1" fill="#e9aa5a" d="M 349.5,318.5 C 349.89,321.797 350.89,324.797 352.5,327.5C 349.301,340.031 341.301,347.364 328.5,349.5C 327.167,349.5 325.833,349.5 324.5,349.5C 324.615,347.053 325.615,345.053 327.5,343.5C 335.358,341.586 341.358,337.253 345.5,330.5C 345.56,331.043 345.893,331.376 346.5,331.5C 348.311,327.331 349.311,322.998 349.5,318.5 Z"/></g>
<g><path style="opacity:1" fill="#ebad4d" d="M 56.5,319.5 C 56.5,322.833 56.5,326.167 56.5,329.5C 55.1667,329.5 53.8333,329.5 52.5,329.5C 51.6993,327.958 51.366,326.292 51.5,324.5C 51.1796,321.102 51.513,317.768 52.5,314.5C 53.5779,316.461 54.9113,318.128 56.5,319.5 Z"/></g>
<g><path style="opacity:1" fill="#d6ad6b" d="M 280.5,326.5 C 284.831,324.399 286.664,325.733 286,330.5C 285.292,331.381 284.458,332.047 283.5,332.5C 284.15,330.565 284.483,328.565 284.5,326.5C 283.167,326.5 281.833,326.5 280.5,326.5 Z"/></g>
<g><path style="opacity:0.863" fill="#e1ae55" d="M 119.5,332.5 C 116.833,330.5 114.5,328.167 112.5,325.5C 113.743,324.263 114.743,324.596 115.5,326.5C 117.045,327.452 118.712,327.785 120.5,327.5C 120.36,329.124 121.027,330.29 122.5,331C 121.756,332.039 120.756,332.539 119.5,332.5 Z"/></g>
<g><path style="opacity:1" fill="#eda951" d="M 280.5,326.5 C 281.833,326.5 283.167,326.5 284.5,326.5C 284.483,328.565 284.15,330.565 283.5,332.5C 283.167,333.5 282.5,334.167 281.5,334.5C 279.444,333.378 278.111,331.711 277.5,329.5C 278.167,328.167 279.167,327.167 280.5,326.5 Z"/></g>
<g><path style="opacity:0.647" fill="#e0ac6b" d="M 270.5,336.5 C 271.167,340.5 269.5,342.167 265.5,341.5C 266.833,339.5 268.5,337.833 270.5,336.5 Z"/></g>
<g><path style="opacity:1" fill="#eaaa5a" d="M 110.5,318.5 C 112.042,319.301 113.708,319.634 115.5,319.5C 124.167,327.833 132.833,336.167 141.5,344.5C 147.605,345.996 153.938,346.663 160.5,346.5C 160.5,347.5 160.5,348.5 160.5,349.5C 160.5,350.167 160.5,350.833 160.5,351.5C 156.5,351.5 152.5,351.5 148.5,351.5C 145.247,352.247 141.914,352.247 138.5,351.5C 139.093,346.281 138.093,345.614 135.5,349.5C 134.859,348.007 133.859,347.007 132.5,346.5C 132.85,344.374 132.85,342.041 132.5,339.5C 130.708,339.366 129.042,339.699 127.5,340.5C 124.5,338.167 121.833,335.5 119.5,332.5C 120.756,332.539 121.756,332.039 122.5,331C 121.027,330.29 120.36,329.124 120.5,327.5C 118.712,327.785 117.045,327.452 115.5,326.5C 114.743,324.596 113.743,324.263 112.5,325.5C 111.167,324.833 110.167,323.833 109.5,322.5C 107.922,320.625 108.255,319.292 110.5,318.5 Z"/></g>
<g><path style="opacity:0.971" fill="#e4ab5c" d="M 56.5,319.5 C 57.7226,325.645 60.2226,331.312 64,336.5C 67.2975,339.567 71.1308,341.733 75.5,343C 93.7891,344.599 112.122,344.932 130.5,344C 129.29,342.961 128.29,341.794 127.5,340.5C 129.042,339.699 130.708,339.366 132.5,339.5C 132.85,342.041 132.85,344.374 132.5,346.5C 132.5,347.833 132.5,349.167 132.5,350.5C 116.167,350.5 99.8333,350.5 83.5,350.5C 68.1825,350.686 57.8491,343.686 52.5,329.5C 53.8333,329.5 55.1667,329.5 56.5,329.5C 56.5,326.167 56.5,322.833 56.5,319.5 Z"/></g>
<g><path style="opacity:0.333" fill="#dbae68" d="M 141.5,344.5 C 147.833,344.5 154.167,344.5 160.5,344.5C 161.209,345.404 162.209,345.737 163.5,345.5C 163.912,347.973 162.912,349.306 160.5,349.5C 160.5,348.5 160.5,347.5 160.5,346.5C 153.938,346.663 147.605,345.996 141.5,344.5 Z"/></g>
<g><path style="opacity:0.733" fill="#dcae69" d="M 260.5,344.5 C 260.389,345.117 260.056,345.617 259.5,346C 254.011,347.501 248.511,347.668 243,346.5C 240.98,347.032 240.147,348.365 240.5,350.5C 238.621,349.659 236.621,349.325 234.5,349.5C 233.754,345.69 232.754,345.69 231.5,349.5C 230.201,347.847 230.534,346.347 232.5,345C 241.827,344.5 251.161,344.334 260.5,344.5 Z"/></g>
<g><path style="opacity:0.897" fill="#dcae6b" d="M 274.5,344.5 C 279.167,344.5 283.833,344.5 288.5,344.5C 288.5,346.167 288.5,347.833 288.5,349.5C 283.93,348.559 279.263,348.226 274.5,348.5C 274.5,347.167 274.5,345.833 274.5,344.5 Z"/></g>
<g><path style="opacity:0.968" fill="#e2ad5e" d="M 288.5,344.5 C 299.167,344.5 309.833,344.5 320.5,344.5C 315.228,345.831 309.895,347.498 304.5,349.5C 298.852,348.329 293.519,348.329 288.5,349.5C 288.5,347.833 288.5,346.167 288.5,344.5 Z"/></g>
<g><path style="opacity:1" fill="#e5aa5f" d="M 166.5,344.5 C 169.59,343.83 171.257,344.997 171.5,348C 171.316,349.376 170.649,350.209 169.5,350.5C 168.5,350.5 167.5,350.5 166.5,350.5C 166.5,348.5 166.5,346.5 166.5,344.5 Z"/></g>
<g><path style="opacity:1" fill="#d5ae73" d="M 160.5,344.5 C 162.5,344.5 164.5,344.5 166.5,344.5C 166.5,346.5 166.5,348.5 166.5,350.5C 167.5,350.5 168.5,350.5 169.5,350.5C 166.713,351.477 163.713,351.81 160.5,351.5C 160.5,350.833 160.5,350.167 160.5,349.5C 162.912,349.306 163.912,347.973 163.5,345.5C 162.209,345.737 161.209,345.404 160.5,344.5 Z"/></g>
<g><path style="opacity:1" fill="#d8b64c" d="M 234.5,349.5 C 233.5,349.5 232.5,349.5 231.5,349.5C 232.754,345.69 233.754,345.69 234.5,349.5 Z"/></g>
<g><path style="opacity:0.997" fill="#ebaa5a" d="M 277.5,329.5 C 278.111,331.711 279.444,333.378 281.5,334.5C 278.704,337.797 275.704,340.964 272.5,344C 273.094,344.464 273.761,344.631 274.5,344.5C 274.5,345.833 274.5,347.167 274.5,348.5C 274.44,349.043 274.107,349.376 273.5,349.5C 272.614,348.675 272.281,347.675 272.5,346.5C 270.801,346.34 269.134,346.506 267.5,347C 266.778,348.751 265.778,350.251 264.5,351.5C 261.167,355.5 257.5,359.167 253.5,362.5C 251.952,362.179 251.285,361.179 251.5,359.5C 250.5,359.5 249.5,359.5 248.5,359.5C 248.799,361.604 248.466,363.604 247.5,365.5C 246.828,364.051 246.161,362.718 245.5,361.5C 248.296,358.203 251.296,355.036 254.5,352C 253.906,351.536 253.239,351.369 252.5,351.5C 248.702,350.517 244.702,350.183 240.5,350.5C 240.147,348.365 240.98,347.032 243,346.5C 248.511,347.668 254.011,347.501 259.5,346C 260.056,345.617 260.389,345.117 260.5,344.5C 262.411,343.925 264.078,342.925 265.5,341.5C 269.5,342.167 271.167,340.5 270.5,336.5C 272.5,333.833 274.833,331.5 277.5,329.5 Z"/></g>
<g><path style="opacity:1" fill="#dbae6a" d="M 327.5,343.5 C 325.615,345.053 324.615,347.053 324.5,349.5C 325.833,349.5 327.167,349.5 328.5,349.5C 326.393,350.468 324.059,350.802 321.5,350.5C 315.697,349.838 310.03,349.504 304.5,349.5C 309.895,347.498 315.228,345.831 320.5,344.5C 322.861,344.326 325.194,343.993 327.5,343.5 Z"/></g>
<g><path style="opacity:1" fill="#d6af75" d="M 274.5,348.5 C 279.263,348.226 283.93,348.559 288.5,349.5C 293.519,348.329 298.852,348.329 304.5,349.5C 310.03,349.504 315.697,349.838 321.5,350.5C 302.674,351.497 283.674,351.83 264.5,351.5C 265.778,350.251 266.778,348.751 267.5,347C 269.134,346.506 270.801,346.34 272.5,346.5C 272.281,347.675 272.614,348.675 273.5,349.5C 274.107,349.376 274.44,349.043 274.5,348.5 Z"/></g>
<g><path style="opacity:0.2" fill="#d9ac71" d="M 132.5,346.5 C 133.859,347.007 134.859,348.007 135.5,349.5C 138.093,345.614 139.093,346.281 138.5,351.5C 119.992,351.83 101.659,351.497 83.5,350.5C 99.8333,350.5 116.167,350.5 132.5,350.5C 132.5,349.167 132.5,347.833 132.5,346.5 Z"/></g>
<g><path style="opacity:0.2" fill="#d6b075" d="M 231.5,349.5 C 232.5,349.5 233.5,349.5 234.5,349.5C 236.621,349.325 238.621,349.659 240.5,350.5C 244.702,350.183 248.702,350.517 252.5,351.5C 245.825,351.666 239.158,351.5 232.5,351C 231.944,350.617 231.611,350.117 231.5,349.5 Z"/></g>
<g><path style="opacity:0.99" fill="#e9a961" d="M 138.5,351.5 C 141.914,352.247 145.247,352.247 148.5,351.5C 149.415,353.754 150.748,355.754 152.5,357.5C 151.316,359.41 149.816,359.743 148,358.5C 147.536,359.094 147.369,359.761 147.5,360.5C 144.167,357.833 141.167,354.833 138.5,351.5 Z"/></g>
<g><path style="opacity:1" fill="#e7ad54" d="M 152.5,357.5 C 153.5,357.833 154.167,358.5 154.5,359.5C 154.5,360.167 154.5,360.833 154.5,361.5C 153.9,362.9 152.9,363.9 151.5,364.5C 149.833,363.5 148.5,362.167 147.5,360.5C 147.369,359.761 147.536,359.094 148,358.5C 149.816,359.743 151.316,359.41 152.5,357.5 Z"/></g>
<g><path style="opacity:1" fill="#d9b067" d="M 154.5,359.5 C 157.5,361.833 160.167,364.5 162.5,367.5C 158.721,366.947 156.054,364.947 154.5,361.5C 154.5,360.833 154.5,360.167 154.5,359.5 Z"/></g>
<g><path style="opacity:1" fill="#e5ab61" d="M 253.5,362.5 C 250.5,366.167 247.167,369.5 243.5,372.5C 242.086,370.402 242.752,369.402 245.5,369.5C 245.5,368.5 245.5,367.5 245.5,366.5C 243.821,366.715 242.821,366.048 242.5,364.5C 243.167,363.167 244.167,362.167 245.5,361.5C 246.161,362.718 246.828,364.051 247.5,365.5C 248.466,363.604 248.799,361.604 248.5,359.5C 249.5,359.5 250.5,359.5 251.5,359.5C 251.285,361.179 251.952,362.179 253.5,362.5 Z"/></g>
<g><path style="opacity:1" fill="#f0a856" d="M 242.5,364.5 C 242.821,366.048 243.821,366.715 245.5,366.5C 245.5,367.5 245.5,368.5 245.5,369.5C 242.752,369.402 242.086,370.402 243.5,372.5C 242.167,372.5 240.833,372.5 239.5,372.5C 240.071,370.64 240.071,368.973 239.5,367.5C 240.167,366.167 241.167,365.167 242.5,364.5 Z"/></g>
<g><path style="opacity:1" fill="#e8aa60" d="M 154.5,361.5 C 156.054,364.947 158.721,366.947 162.5,367.5C 167.5,371.833 172.167,376.5 176.5,381.5C 172.086,385.692 169.419,384.525 168.5,378C 169.923,376.588 169.756,375.421 168,374.5C 166.667,375.833 165.333,375.833 164,374.5C 163.536,375.094 163.369,375.761 163.5,376.5C 159.167,372.833 155.167,368.833 151.5,364.5C 152.9,363.9 153.9,362.9 154.5,361.5 Z"/></g>
<g><path style="opacity:1" fill="#e7ac64" d="M 239.5,367.5 C 240.071,368.973 240.071,370.64 239.5,372.5C 240.833,372.5 242.167,372.5 243.5,372.5C 241.833,374.833 239.833,376.833 237.5,378.5C 237.48,376.857 238.147,375.524 239.5,374.5C 237.709,373.83 236.042,373.163 234.5,372.5C 235.833,370.5 237.5,368.833 239.5,367.5 Z"/></g>
<g><path style="opacity:1" fill="#e6ab60" d="M 233.5,373.5 C 232.621,375.228 231.954,377.061 231.5,379C 231.833,379.833 232.167,380.667 232.5,381.5C 233.417,380.873 234.417,380.539 235.5,380.5C 233.833,382.833 231.833,384.833 229.5,386.5C 229.5,385.167 229.5,383.833 229.5,382.5C 226.167,381.833 224.167,383.167 223.5,386.5C 224.32,388.111 225.654,388.778 227.5,388.5C 222.693,393.409 217.027,397.076 210.5,399.5C 210.646,397.194 210.979,394.861 211.5,392.5C 219.398,386.943 226.731,380.61 233.5,373.5 Z"/></g>
<g><path style="opacity:1" fill="#ebac55" d="M 234.5,372.5 C 236.042,373.163 237.709,373.83 239.5,374.5C 238.147,375.524 237.48,376.857 237.5,378.5C 237.167,379.5 236.5,380.167 235.5,380.5C 234.417,380.539 233.417,380.873 232.5,381.5C 232.167,380.667 231.833,379.833 231.5,379C 231.954,377.061 232.621,375.228 233.5,373.5C 233.5,372.833 233.833,372.5 234.5,372.5 Z"/></g>
<g><path style="opacity:1" fill="#e4af52" d="M 176.5,381.5 C 177.5,382.167 178.5,382.833 179.5,383.5C 179.179,385.048 178.179,385.715 176.5,385.5C 176.703,387.638 177.703,389.305 179.5,390.5C 179.376,391.107 179.043,391.44 178.5,391.5C 172.5,387.5 167.5,382.5 163.5,376.5C 163.369,375.761 163.536,375.094 164,374.5C 165.333,375.833 166.667,375.833 168,374.5C 169.756,375.421 169.923,376.588 168.5,378C 169.419,384.525 172.086,385.692 176.5,381.5 Z"/></g>
<g><path style="opacity:0.976" fill="#efa859" d="M 229.5,386.5 C 229.167,387.5 228.5,388.167 227.5,388.5C 225.654,388.778 224.32,388.111 223.5,386.5C 224.167,383.167 226.167,381.833 229.5,382.5C 229.5,383.833 229.5,385.167 229.5,386.5 Z"/></g>
<g><path style="opacity:1" fill="#ecaa5f" d="M 179.5,383.5 C 183.524,386.531 187.524,389.531 191.5,392.5C 188.615,392.643 186.282,393.643 184.5,395.5C 182.205,394.525 180.205,393.192 178.5,391.5C 179.043,391.44 179.376,391.107 179.5,390.5C 177.703,389.305 176.703,387.638 176.5,385.5C 178.179,385.715 179.179,385.048 179.5,383.5 Z"/></g>
<g><path style="opacity:0.946" fill="#e9ab55" d="M 191.5,392.5 C 198.166,395.166 204.833,395.166 211.5,392.5C 210.979,394.861 210.646,397.194 210.5,399.5C 209.833,399.5 209.5,399.833 209.5,400.5C 204.5,400.5 199.5,400.5 194.5,400.5C 194.5,400.167 194.5,399.833 194.5,399.5C 194.5,398.5 194.5,397.5 194.5,396.5C 191.14,396.384 187.807,396.051 184.5,395.5C 186.282,393.643 188.615,392.643 191.5,392.5 Z"/></g>
<g><path style="opacity:1" fill="#d9b161" d="M 184.5,395.5 C 187.807,396.051 191.14,396.384 194.5,396.5C 194.5,397.5 194.5,398.5 194.5,399.5C 190.703,399.128 187.37,397.794 184.5,395.5 Z"/></g>
</svg>
